G04 MADE WITH FRITZING*
G04 WWW.FRITZING.ORG*
G04 DOUBLE SIDED*
G04 HOLES PLATED*
G04 CONTOUR ON CENTER OF CONTOUR VECTOR*
%ASAXBY*%
%FSLAX23Y23*%
%MOIN*%
%OFA0B0*%
%SFA1.0B1.0*%
%ADD10C,0.039370*%
%ADD11C,0.074000*%
%ADD12C,0.165354*%
%ADD13C,0.070000*%
%ADD14C,0.078000*%
%ADD15C,0.075000*%
%ADD16C,0.130000*%
%ADD17C,0.072917*%
%ADD18C,0.082000*%
%ADD19C,0.051496*%
%ADD20C,0.079370*%
%ADD21C,0.062992*%
%ADD22C,0.099055*%
%ADD23R,0.074000X0.074000*%
%ADD24R,0.070000X0.070000*%
%ADD25R,0.075000X0.075000*%
%ADD26R,0.082000X0.082000*%
%ADD27R,0.079370X0.079370*%
%ADD28R,0.062992X0.062992*%
%ADD29R,0.099055X0.099055*%
%ADD30C,0.024000*%
%ADD31C,0.012000*%
%ADD32C,0.048000*%
%ADD33C,0.008000*%
%ADD34C,0.016000*%
%ADD35C,0.032000*%
%ADD36C,0.065000*%
%ADD37C,0.080000*%
%ADD38C,0.050000*%
%ADD39C,0.011111*%
%LNCOPPER0*%
G90*
G70*
G54D10*
X3566Y1378D03*
X2991Y1103D03*
X2441Y3303D03*
X2341Y3453D03*
X1966Y603D03*
X2491Y1328D03*
X716Y1053D03*
X2441Y2203D03*
X3041Y2728D03*
X1366Y3678D03*
X216Y3853D03*
X3116Y928D03*
X1666Y1003D03*
X2491Y1053D03*
X2591Y678D03*
X2266Y828D03*
X2691Y853D03*
X1166Y703D03*
X2366Y3678D03*
X1066Y928D03*
X1766Y2528D03*
X991Y1153D03*
X1916Y1453D03*
X3666Y1003D03*
X3691Y1303D03*
X2666Y1453D03*
X591Y3103D03*
G54D11*
X616Y2353D03*
X616Y2453D03*
X616Y2553D03*
X616Y2653D03*
X616Y2753D03*
X616Y2853D03*
G54D12*
X144Y2148D03*
X144Y3058D03*
G54D11*
X616Y2353D03*
X616Y2453D03*
X616Y2553D03*
X616Y2653D03*
X616Y2753D03*
X616Y2853D03*
G54D12*
X144Y2148D03*
X144Y3058D03*
G54D10*
X3491Y2878D03*
X3491Y2703D03*
X3491Y2578D03*
X3066Y603D03*
X3116Y853D03*
X3591Y2878D03*
X2216Y2953D03*
X2016Y2953D03*
X966Y2653D03*
X716Y2553D03*
X341Y1953D03*
X641Y2203D03*
X641Y1753D03*
X2866Y1753D03*
X2966Y2353D03*
X3391Y2378D03*
X1502Y628D03*
G54D13*
X3591Y3003D03*
X3591Y2503D03*
X3491Y3003D03*
X3491Y2503D03*
X3391Y3003D03*
X3391Y2503D03*
X3291Y3003D03*
X3291Y2503D03*
X3191Y3003D03*
X3191Y2503D03*
X3091Y3003D03*
X3091Y2503D03*
X2991Y3003D03*
X2991Y2503D03*
X2891Y3003D03*
X2891Y2503D03*
G54D10*
X3866Y2078D03*
X1566Y3578D03*
X3166Y403D03*
X3791Y1078D03*
X3816Y778D03*
X966Y3303D03*
X1891Y1228D03*
G54D14*
X191Y1553D03*
X291Y1553D03*
X391Y1553D03*
X491Y1553D03*
X591Y1553D03*
X191Y253D03*
X291Y253D03*
X391Y253D03*
X491Y253D03*
X591Y253D03*
X191Y853D03*
X191Y1153D03*
X191Y353D03*
X291Y353D03*
X391Y353D03*
X491Y353D03*
X591Y353D03*
X191Y1353D03*
X191Y1253D03*
X191Y1053D03*
X191Y753D03*
X191Y453D03*
X191Y953D03*
X191Y1453D03*
X191Y653D03*
X191Y553D03*
X291Y853D03*
X291Y1153D03*
X291Y1353D03*
X291Y1253D03*
X291Y1053D03*
X291Y753D03*
X291Y453D03*
X291Y953D03*
X291Y1453D03*
X291Y653D03*
X291Y553D03*
X391Y853D03*
X391Y1153D03*
X391Y1353D03*
X391Y1253D03*
X391Y1053D03*
X391Y753D03*
X391Y453D03*
X391Y953D03*
X391Y1453D03*
X391Y653D03*
X391Y553D03*
X491Y853D03*
X491Y1153D03*
X491Y1353D03*
X491Y1253D03*
X491Y1053D03*
X491Y753D03*
X491Y453D03*
X491Y953D03*
X491Y1453D03*
X491Y653D03*
X491Y553D03*
X591Y453D03*
X591Y553D03*
X591Y653D03*
X591Y753D03*
X591Y853D03*
X591Y953D03*
X591Y1053D03*
X591Y1153D03*
X591Y1253D03*
X591Y1353D03*
X591Y1453D03*
G54D15*
X1891Y728D03*
X1891Y1028D03*
X1991Y728D03*
X1991Y1028D03*
X2091Y728D03*
X2091Y1028D03*
X2191Y728D03*
X2191Y1028D03*
G54D16*
X1241Y2628D03*
X1241Y2828D03*
X1241Y2428D03*
X1241Y2228D03*
G54D10*
X1316Y1478D03*
X3316Y1603D03*
X2866Y1503D03*
X1991Y1653D03*
X1541Y1728D03*
X1241Y378D03*
X1066Y353D03*
X166Y2653D03*
X3566Y428D03*
X2541Y2903D03*
X2941Y278D03*
X2791Y1878D03*
X2766Y1828D03*
X1241Y1628D03*
X1341Y1628D03*
G54D15*
X3091Y728D03*
X3091Y1028D03*
X3191Y728D03*
X3191Y1028D03*
X3291Y728D03*
X3291Y1028D03*
X3391Y728D03*
X3391Y1028D03*
G54D11*
X891Y2278D03*
X891Y2178D03*
X891Y2078D03*
X891Y1978D03*
X891Y1878D03*
X891Y1778D03*
X891Y1678D03*
X891Y1578D03*
X891Y1478D03*
X891Y1378D03*
X891Y1278D03*
X891Y1178D03*
X891Y1078D03*
X891Y978D03*
X891Y878D03*
X891Y778D03*
X891Y678D03*
X891Y578D03*
X891Y478D03*
X891Y378D03*
X791Y2278D03*
X791Y2178D03*
X791Y2078D03*
X791Y1978D03*
X791Y1878D03*
X791Y1778D03*
X791Y1678D03*
X791Y1578D03*
X791Y1478D03*
X791Y1378D03*
X791Y1278D03*
X791Y1178D03*
X791Y1078D03*
X791Y978D03*
X791Y878D03*
X791Y778D03*
X791Y678D03*
X791Y578D03*
X791Y478D03*
X791Y378D03*
G54D17*
X2991Y1228D03*
X1391Y1228D03*
X3091Y1228D03*
X3191Y1228D03*
X3291Y1228D03*
X3391Y1228D03*
X3691Y2628D03*
X3491Y1228D03*
X3591Y1228D03*
X1431Y3128D03*
X1991Y1228D03*
X2091Y1228D03*
X2191Y1228D03*
X2291Y1228D03*
X3691Y1828D03*
X2391Y1228D03*
X2491Y1228D03*
X2591Y1228D03*
X2691Y1228D03*
X2191Y3128D03*
X3691Y3028D03*
X3691Y2228D03*
X3691Y1428D03*
X1031Y3128D03*
X1791Y1228D03*
X1791Y3128D03*
X3691Y2828D03*
X3691Y2428D03*
X3691Y2028D03*
X3391Y3128D03*
X3691Y1628D03*
X3291Y3128D03*
X3191Y3128D03*
X3091Y3128D03*
X2991Y3128D03*
X2891Y3128D03*
X2791Y3128D03*
X2691Y3128D03*
X831Y3128D03*
X1231Y3128D03*
X1631Y3128D03*
X1191Y1228D03*
X1591Y1228D03*
X2391Y3128D03*
X1991Y3128D03*
X3691Y3128D03*
X3691Y2928D03*
X3691Y2728D03*
X3691Y2528D03*
X3691Y2328D03*
X3691Y2128D03*
X3691Y1928D03*
X3691Y1728D03*
X3691Y1528D03*
X731Y3128D03*
X931Y3128D03*
X1131Y3128D03*
X1331Y3128D03*
X1531Y3128D03*
X1091Y1228D03*
X1291Y1228D03*
X1491Y1228D03*
X1691Y1228D03*
X2491Y3128D03*
X2291Y3128D03*
X2091Y3128D03*
X1891Y3128D03*
X3791Y3128D03*
X3791Y3028D03*
X3791Y2928D03*
X3791Y2828D03*
X3791Y2728D03*
X3791Y2628D03*
X3791Y2528D03*
X3791Y2428D03*
X3791Y2328D03*
X3791Y2228D03*
X3791Y2128D03*
X3791Y2028D03*
X3791Y1928D03*
X3791Y1828D03*
X3791Y1728D03*
X3791Y1628D03*
X3791Y1528D03*
X3791Y1428D03*
X2891Y1228D03*
G54D18*
X1491Y2503D03*
X1491Y2403D03*
X1491Y2303D03*
X2066Y2478D03*
X1966Y2478D03*
X1866Y2478D03*
X1491Y2928D03*
X1491Y2828D03*
X1491Y2728D03*
X2066Y2228D03*
X1966Y2228D03*
X1866Y2228D03*
G54D13*
X1191Y1378D03*
X1391Y1378D03*
G54D18*
X2566Y3303D03*
X2566Y3601D03*
G54D15*
X466Y1903D03*
X66Y1903D03*
G54D14*
X3566Y528D03*
X3566Y628D03*
X3566Y728D03*
X3566Y1078D03*
X3566Y978D03*
X3566Y878D03*
X2791Y2828D03*
X2791Y2728D03*
X2791Y2628D03*
G54D15*
X2991Y603D03*
X3391Y603D03*
X2991Y503D03*
X3391Y503D03*
G54D14*
X2991Y403D03*
X3091Y403D03*
X3266Y403D03*
X3366Y403D03*
G54D15*
X3591Y1453D03*
X3191Y1453D03*
X2366Y3028D03*
X2366Y2628D03*
X2266Y3028D03*
X2266Y2628D03*
X3566Y2028D03*
X3166Y2028D03*
X3591Y1753D03*
X3191Y1753D03*
X2166Y3028D03*
X2166Y2628D03*
X1666Y2953D03*
X1666Y2553D03*
X3566Y2328D03*
X3166Y2328D03*
G54D18*
X2666Y3703D03*
X2766Y3703D03*
X2866Y3703D03*
G54D13*
X3041Y3728D03*
X3241Y3728D03*
X2891Y3528D03*
X2891Y3328D03*
X3216Y3378D03*
X3216Y3578D03*
X2716Y3528D03*
X2716Y3328D03*
G54D18*
X3066Y3628D03*
X3066Y3330D03*
G54D19*
X3391Y3403D03*
X3391Y3698D03*
G54D20*
X3066Y1453D03*
X2766Y1453D03*
X3066Y1553D03*
X2766Y1553D03*
X3066Y1653D03*
X2766Y1653D03*
X3066Y1753D03*
X2766Y1753D03*
X3066Y2053D03*
X2766Y2053D03*
X3066Y2153D03*
X2766Y2153D03*
X3066Y2253D03*
X2766Y2253D03*
X3066Y2353D03*
X2766Y2353D03*
G54D15*
X3591Y1553D03*
X3191Y1553D03*
X1866Y3028D03*
X1866Y2628D03*
X1966Y3028D03*
X1966Y2628D03*
X3566Y2128D03*
X3166Y2128D03*
X3591Y1653D03*
X3191Y1653D03*
X2066Y3028D03*
X2066Y2628D03*
X1766Y3028D03*
X1766Y2628D03*
X3566Y2228D03*
X3166Y2228D03*
X2066Y1378D03*
X2066Y1878D03*
X2591Y2503D03*
X2591Y3003D03*
X2191Y1878D03*
X2191Y1378D03*
X2466Y3003D03*
X2466Y2503D03*
X2416Y1778D03*
X2416Y1378D03*
X2266Y2103D03*
X2266Y2503D03*
X2316Y1778D03*
X2316Y1378D03*
X2366Y2103D03*
X2366Y2503D03*
G54D21*
X2493Y1703D03*
X2591Y1703D03*
X2493Y2303D03*
X2591Y2303D03*
X2493Y1503D03*
X2591Y1503D03*
X2493Y2103D03*
X2591Y2103D03*
G54D15*
X1741Y1853D03*
X1741Y1453D03*
G54D13*
X1666Y378D03*
X1466Y378D03*
X1341Y378D03*
X1141Y378D03*
G54D15*
X1666Y703D03*
X1666Y1103D03*
X1466Y703D03*
X1466Y1103D03*
G54D18*
X1191Y778D03*
X1191Y1076D03*
G54D13*
X266Y1678D03*
X466Y1678D03*
X266Y1803D03*
X466Y1803D03*
X2666Y278D03*
X2466Y278D03*
G54D15*
X2766Y678D03*
X2766Y1078D03*
X2341Y678D03*
X2341Y1078D03*
X1641Y1853D03*
X1641Y1453D03*
X1091Y3253D03*
X691Y3253D03*
X1266Y3253D03*
X1666Y3253D03*
X1091Y3553D03*
X691Y3553D03*
X1266Y3553D03*
X1666Y3553D03*
G54D21*
X542Y3281D03*
X542Y3379D03*
X1816Y3305D03*
X1816Y3403D03*
X542Y3481D03*
X542Y3579D03*
X1816Y3505D03*
X1816Y3603D03*
G54D18*
X91Y3653D03*
X389Y3653D03*
X2091Y3728D03*
X1793Y3728D03*
X91Y3778D03*
X389Y3778D03*
X2491Y3728D03*
X2193Y3728D03*
X341Y3303D03*
X241Y3303D03*
X141Y3303D03*
X2016Y3303D03*
X2116Y3303D03*
X2216Y3303D03*
X342Y3529D03*
X242Y3529D03*
X142Y3529D03*
X2016Y3528D03*
X2116Y3528D03*
X2216Y3528D03*
G54D15*
X1091Y3353D03*
X691Y3353D03*
X1265Y3352D03*
X1665Y3352D03*
X1091Y3653D03*
X691Y3653D03*
X1265Y3652D03*
X1665Y3652D03*
X1091Y3453D03*
X691Y3453D03*
X1266Y3453D03*
X1666Y3453D03*
X1091Y3778D03*
X691Y3778D03*
X1266Y3778D03*
X1666Y3778D03*
G54D22*
X3641Y3678D03*
X3641Y3481D03*
G54D23*
X616Y2353D03*
X616Y2353D03*
G54D24*
X2891Y2503D03*
X3491Y2503D03*
G54D25*
X1891Y728D03*
X3091Y728D03*
G54D23*
X791Y2278D03*
G54D26*
X1491Y2503D03*
X2066Y2478D03*
X1491Y2928D03*
X2066Y2228D03*
X2566Y3302D03*
X2666Y3703D03*
X3066Y3629D03*
G54D27*
X3066Y1453D03*
X3066Y2053D03*
G54D28*
X2493Y1703D03*
X2493Y2303D03*
X2493Y1503D03*
X2493Y2103D03*
G54D26*
X1191Y777D03*
G54D28*
X542Y3281D03*
X1816Y3305D03*
X542Y3481D03*
X1816Y3505D03*
G54D26*
X90Y3653D03*
X2092Y3728D03*
X90Y3778D03*
X2492Y3728D03*
X341Y3303D03*
X2016Y3303D03*
X342Y3529D03*
X2016Y3528D03*
G54D29*
X3641Y3678D03*
G54D30*
X1016Y3253D02*
X980Y3290D01*
D02*
X1016Y3153D02*
X1016Y3253D01*
D02*
X1015Y3154D02*
X1016Y3153D01*
G54D31*
D02*
X3491Y1103D02*
X3116Y1103D01*
D02*
X3116Y1103D02*
X3091Y1078D01*
D02*
X3491Y1103D02*
X3517Y1079D01*
D02*
X3091Y1078D02*
X3091Y1051D01*
D02*
X3517Y1079D02*
X3542Y1078D01*
D02*
X1142Y977D02*
X1267Y977D01*
D02*
X1267Y977D02*
X1291Y1004D01*
D02*
X1291Y1004D02*
X1291Y1077D01*
D02*
X1116Y952D02*
X1142Y977D01*
D02*
X1291Y1077D02*
X1291Y1203D01*
D02*
X1942Y552D02*
X1216Y552D01*
D02*
X1216Y552D02*
X1116Y652D01*
D02*
X1967Y577D02*
X1942Y552D01*
D02*
X1116Y652D02*
X1116Y952D01*
D02*
X1966Y590D02*
X1967Y577D01*
D02*
X1218Y1076D02*
X1291Y1077D01*
G54D30*
D02*
X1441Y3453D02*
X1638Y3453D01*
D02*
X1416Y3628D02*
X1416Y3478D01*
D02*
X1416Y3478D02*
X1441Y3453D01*
D02*
X1380Y3665D02*
X1416Y3628D01*
G54D32*
D02*
X216Y3628D02*
X168Y3564D01*
D02*
X216Y3823D02*
X216Y3628D01*
D02*
X1793Y2515D02*
X1828Y2497D01*
G54D30*
D02*
X3366Y928D02*
X3135Y928D01*
D02*
X3391Y953D02*
X3366Y928D01*
D02*
X3391Y999D02*
X3391Y953D01*
D02*
X3091Y278D02*
X3091Y373D01*
D02*
X3616Y278D02*
X3091Y278D01*
D02*
X3641Y303D02*
X3616Y278D01*
D02*
X3641Y903D02*
X3641Y303D01*
D02*
X3587Y957D02*
X3641Y903D01*
D02*
X1591Y1028D02*
X1591Y1198D01*
D02*
X1616Y1004D02*
X1591Y1028D01*
D02*
X1647Y1003D02*
X1616Y1004D01*
D02*
X2966Y2378D02*
X2966Y2372D01*
D02*
X2891Y2453D02*
X2966Y2378D01*
D02*
X2891Y2477D02*
X2891Y2453D01*
G54D33*
D02*
X641Y3152D02*
X665Y3178D01*
D02*
X717Y3178D02*
X754Y3215D01*
D02*
X665Y3178D02*
X717Y3178D01*
D02*
X618Y3028D02*
X643Y3061D01*
D02*
X317Y3028D02*
X618Y3028D01*
D02*
X643Y3061D02*
X641Y3152D01*
D02*
X291Y2078D02*
X291Y2991D01*
D02*
X265Y2052D02*
X291Y2078D01*
D02*
X141Y2052D02*
X265Y2052D01*
D02*
X115Y2028D02*
X141Y2052D01*
D02*
X117Y1752D02*
X115Y2028D01*
D02*
X28Y1665D02*
X117Y1752D01*
D02*
X28Y1043D02*
X28Y1665D01*
D02*
X761Y1029D02*
X724Y1002D01*
D02*
X724Y1002D02*
X63Y1002D01*
D02*
X840Y637D02*
X840Y1026D01*
D02*
X63Y1002D02*
X28Y1043D01*
D02*
X808Y598D02*
X840Y637D01*
D02*
X840Y1026D02*
X761Y1029D01*
D02*
X291Y2991D02*
X317Y3028D01*
D02*
X754Y3691D02*
X778Y3715D01*
D02*
X754Y3215D02*
X754Y3691D01*
D02*
X778Y3715D02*
X1704Y3715D01*
D02*
X1704Y3715D02*
X1778Y3802D01*
D02*
X2341Y3802D02*
X2367Y3778D01*
D02*
X1778Y3802D02*
X2341Y3802D01*
D02*
X2367Y3778D02*
X2366Y3691D01*
G54D32*
D02*
X1541Y2303D02*
X1534Y2303D01*
D02*
X1745Y2507D02*
X1541Y2303D01*
G54D30*
D02*
X703Y2540D02*
X638Y2475D01*
G54D32*
D02*
X2917Y1653D02*
X2766Y1653D01*
D02*
X2966Y1703D02*
X2917Y1653D01*
G54D34*
D02*
X3440Y2428D02*
X3401Y2388D01*
G54D35*
D02*
X2981Y2334D02*
X3043Y2254D01*
D02*
X3043Y2254D02*
X3030Y2254D01*
G54D31*
D02*
X3616Y2078D02*
X3582Y2044D01*
D02*
X3853Y2078D02*
X3616Y2078D01*
G54D34*
D02*
X616Y979D02*
X608Y970D01*
G54D32*
D02*
X616Y778D02*
X609Y770D01*
D02*
X616Y678D02*
X609Y670D01*
G54D31*
D02*
X91Y953D02*
X167Y953D01*
D02*
X116Y753D02*
X167Y753D01*
D02*
X142Y453D02*
X167Y453D01*
D02*
X91Y1353D02*
X167Y1353D01*
D02*
X141Y1453D02*
X167Y1453D01*
G54D30*
D02*
X341Y1803D02*
X292Y1803D01*
D02*
X448Y1696D02*
X341Y1803D01*
G54D32*
D02*
X617Y879D02*
X608Y871D01*
G54D34*
D02*
X1991Y1177D02*
X1991Y1051D01*
G54D36*
D02*
X845Y2178D02*
X838Y2178D01*
G54D32*
D02*
X1242Y2377D02*
X1242Y2371D01*
D02*
X923Y2105D02*
X1242Y2377D01*
G54D34*
D02*
X766Y978D02*
X616Y979D01*
G54D32*
D02*
X766Y878D02*
X617Y879D01*
D02*
X766Y778D02*
X616Y778D01*
D02*
X766Y678D02*
X616Y678D01*
G54D37*
D02*
X1366Y2153D02*
X1391Y2128D01*
D02*
X1366Y2303D02*
X1366Y2153D01*
D02*
X1391Y2128D02*
X1541Y2128D01*
D02*
X1541Y2128D02*
X1766Y2353D01*
D02*
X1766Y2353D02*
X1966Y2353D01*
D02*
X1966Y2353D02*
X1966Y2418D01*
D02*
X1293Y2376D02*
X1366Y2303D01*
G54D34*
D02*
X1991Y1203D02*
X1991Y1177D01*
G54D38*
D02*
X3641Y3252D02*
X3691Y3228D01*
D02*
X2991Y3252D02*
X3641Y3252D01*
D02*
X2965Y3278D02*
X2991Y3252D01*
D02*
X3691Y3228D02*
X3691Y3175D01*
D02*
X2967Y3328D02*
X2965Y3278D01*
D02*
X3791Y3228D02*
X3791Y3175D01*
D02*
X3691Y3228D02*
X3791Y3228D01*
G54D31*
D02*
X716Y1328D02*
X770Y1292D01*
G54D35*
D02*
X3591Y2603D02*
X3591Y2535D01*
D02*
X3567Y2628D02*
X3591Y2603D01*
D02*
X2827Y2628D02*
X3567Y2628D01*
G54D34*
D02*
X3440Y2428D02*
X3566Y2428D01*
D02*
X3591Y2453D02*
X3591Y2482D01*
D02*
X3566Y2428D02*
X3591Y2453D01*
G54D31*
D02*
X2891Y479D02*
X2917Y453D01*
D02*
X2917Y453D02*
X2916Y353D01*
D02*
X2916Y353D02*
X2941Y328D01*
D02*
X2941Y328D02*
X3066Y328D01*
D02*
X1142Y479D02*
X2891Y479D01*
D02*
X3066Y328D02*
X3091Y353D01*
D02*
X3091Y353D02*
X3091Y378D01*
D02*
X966Y653D02*
X1142Y479D01*
D02*
X966Y703D02*
X966Y653D01*
D02*
X909Y760D02*
X966Y703D01*
D02*
X2841Y453D02*
X1117Y453D01*
D02*
X2866Y428D02*
X2841Y453D01*
D02*
X2865Y302D02*
X2866Y428D01*
D02*
X1117Y453D02*
X909Y660D01*
D02*
X2891Y277D02*
X2865Y302D01*
D02*
X2928Y278D02*
X2891Y277D01*
G54D30*
D02*
X791Y328D02*
X791Y347D01*
D02*
X816Y304D02*
X791Y328D01*
D02*
X1116Y303D02*
X816Y304D01*
D02*
X1141Y328D02*
X1116Y303D01*
D02*
X1141Y352D02*
X1141Y328D01*
G54D31*
D02*
X1440Y428D02*
X840Y428D01*
D02*
X840Y428D02*
X809Y460D01*
D02*
X1467Y404D02*
X1440Y428D01*
D02*
X1467Y399D02*
X1467Y404D01*
D02*
X116Y428D02*
X116Y204D01*
D02*
X116Y204D02*
X142Y177D01*
D02*
X142Y453D02*
X116Y428D01*
D02*
X142Y177D02*
X3840Y177D01*
D02*
X3840Y177D02*
X3866Y203D01*
D02*
X3866Y203D02*
X3867Y1328D01*
D02*
X3616Y1352D02*
X3591Y1328D01*
D02*
X3842Y1352D02*
X3616Y1352D01*
D02*
X3591Y1328D02*
X3591Y1253D01*
D02*
X3867Y1328D02*
X3842Y1352D01*
D02*
X91Y728D02*
X91Y179D01*
D02*
X116Y753D02*
X91Y728D01*
D02*
X91Y179D02*
X116Y152D01*
D02*
X3866Y153D02*
X3891Y177D01*
D02*
X3867Y1928D02*
X3816Y1928D01*
D02*
X116Y152D02*
X3866Y153D01*
D02*
X3891Y177D02*
X3891Y1900D01*
D02*
X3891Y1900D02*
X3867Y1928D01*
D02*
X91Y953D02*
X67Y928D01*
D02*
X67Y928D02*
X67Y152D01*
D02*
X67Y152D02*
X91Y128D01*
D02*
X3917Y153D02*
X3916Y2004D01*
D02*
X3916Y2004D02*
X3891Y2028D01*
D02*
X91Y128D02*
X3891Y128D01*
D02*
X3891Y128D02*
X3917Y153D01*
D02*
X3891Y2028D02*
X3816Y2028D01*
D02*
X2891Y753D02*
X3066Y753D01*
D02*
X2866Y728D02*
X2891Y753D01*
D02*
X2866Y553D02*
X2866Y728D01*
D02*
X2842Y528D02*
X2866Y553D01*
D02*
X1191Y528D02*
X2842Y528D01*
D02*
X1067Y653D02*
X1191Y528D01*
D02*
X1066Y803D02*
X1067Y653D01*
D02*
X3066Y753D02*
X3075Y744D01*
D02*
X909Y960D02*
X1066Y803D01*
D02*
X1017Y753D02*
X1017Y653D01*
D02*
X2891Y503D02*
X2917Y528D01*
D02*
X1166Y503D02*
X2891Y503D01*
D02*
X1017Y653D02*
X1166Y503D01*
D02*
X2917Y528D02*
X2917Y677D01*
D02*
X2940Y703D02*
X2991Y703D01*
D02*
X2917Y677D02*
X2940Y703D01*
D02*
X2991Y703D02*
X3042Y653D01*
D02*
X3042Y653D02*
X3317Y653D01*
D02*
X3317Y653D02*
X3375Y712D01*
D02*
X909Y860D02*
X1017Y753D01*
D02*
X991Y1577D02*
X2166Y1577D01*
D02*
X2166Y1577D02*
X2191Y1553D01*
D02*
X942Y1628D02*
X991Y1577D01*
D02*
X2191Y1553D02*
X2191Y1401D01*
D02*
X840Y1628D02*
X942Y1628D01*
D02*
X809Y1596D02*
X840Y1628D01*
G54D34*
D02*
X909Y1560D02*
X942Y1528D01*
D02*
X942Y1528D02*
X2042Y1528D01*
D02*
X2042Y1528D02*
X2066Y1503D01*
D02*
X2066Y1503D02*
X2066Y1401D01*
G54D35*
D02*
X1241Y1828D02*
X1417Y2002D01*
D02*
X1417Y2002D02*
X2665Y2002D01*
D02*
X2665Y2002D02*
X2774Y1895D01*
D02*
X1241Y1653D02*
X1241Y1828D01*
D02*
X1342Y1652D02*
X1342Y1653D01*
D02*
X1341Y1828D02*
X1342Y1652D01*
D02*
X1465Y1952D02*
X1341Y1828D01*
D02*
X2641Y1953D02*
X1465Y1952D01*
D02*
X2749Y1845D02*
X2641Y1953D01*
G54D31*
D02*
X341Y2052D02*
X315Y2028D01*
D02*
X315Y2028D02*
X191Y2028D01*
D02*
X66Y1378D02*
X91Y1353D01*
D02*
X65Y1628D02*
X66Y1378D01*
D02*
X165Y1728D02*
X65Y1628D01*
D02*
X167Y2002D02*
X165Y1728D01*
D02*
X191Y2028D02*
X167Y2002D01*
D02*
X342Y2952D02*
X341Y2052D01*
D02*
X691Y2979D02*
X367Y2977D01*
D02*
X716Y3079D02*
X716Y3004D01*
D02*
X716Y3004D02*
X691Y2979D01*
D02*
X367Y2977D02*
X342Y2952D01*
D02*
X724Y3105D02*
X716Y3079D01*
D02*
X391Y2028D02*
X366Y2003D01*
D02*
X791Y2952D02*
X767Y2928D01*
D02*
X791Y3078D02*
X791Y2952D01*
D02*
X767Y2928D02*
X416Y2928D01*
D02*
X416Y2928D02*
X391Y2904D01*
D02*
X391Y2904D02*
X391Y2028D01*
D02*
X366Y2003D02*
X228Y2002D01*
D02*
X116Y1477D02*
X141Y1453D01*
D02*
X115Y1602D02*
X116Y1477D01*
D02*
X217Y1978D02*
X217Y1702D01*
D02*
X217Y1702D02*
X115Y1602D01*
D02*
X228Y2002D02*
X217Y1978D01*
D02*
X816Y3109D02*
X791Y3078D01*
G54D39*
D02*
X466Y2553D02*
X442Y2528D01*
D02*
X591Y2553D02*
X466Y2553D01*
D02*
X417Y1803D02*
X446Y1803D01*
D02*
X391Y1828D02*
X417Y1803D01*
D02*
X391Y1928D02*
X391Y1828D01*
D02*
X442Y1977D02*
X391Y1928D01*
D02*
X442Y2528D02*
X442Y1977D01*
G54D35*
D02*
X2266Y1853D02*
X2216Y1803D01*
D02*
X2216Y1803D02*
X2141Y1803D01*
D02*
X2141Y1803D02*
X2090Y1854D01*
D02*
X2591Y1853D02*
X2266Y1853D01*
D02*
X2667Y1777D02*
X2591Y1853D01*
D02*
X2666Y1777D02*
X2667Y1777D01*
D02*
X2691Y1753D02*
X2666Y1777D01*
D02*
X2691Y1578D02*
X2691Y1753D01*
D02*
X2716Y1553D02*
X2691Y1578D01*
D02*
X2730Y1553D02*
X2716Y1553D01*
G54D32*
D02*
X2808Y2253D02*
X2941Y2252D01*
G54D35*
D02*
X2691Y2704D02*
X2716Y2728D01*
D02*
X2891Y2252D02*
X2891Y2352D01*
D02*
X2891Y2352D02*
X2691Y2528D01*
D02*
X2691Y2528D02*
X2691Y2704D01*
D02*
X2941Y2252D02*
X2891Y2252D01*
D02*
X2716Y2728D02*
X2756Y2728D01*
G54D32*
D02*
X2966Y2203D02*
X2966Y1703D01*
D02*
X2941Y2252D02*
X2966Y2203D01*
G54D34*
D02*
X1114Y3553D02*
X1243Y3553D01*
G54D30*
D02*
X1891Y2753D02*
X2342Y2753D01*
D02*
X2342Y2753D02*
X2367Y2728D01*
D02*
X2367Y2728D02*
X2366Y2657D01*
D02*
X1867Y2728D02*
X1891Y2753D01*
D02*
X1866Y2657D02*
X1867Y2728D01*
G54D35*
D02*
X2617Y3252D02*
X2617Y3102D01*
D02*
X2767Y3028D02*
X2766Y2879D01*
D02*
X2766Y2879D02*
X2775Y2860D01*
D02*
X2741Y3052D02*
X2767Y3028D01*
D02*
X2667Y3052D02*
X2741Y3052D01*
D02*
X2617Y3102D02*
X2667Y3052D01*
D02*
X2593Y3276D02*
X2617Y3252D01*
G54D31*
D02*
X691Y1628D02*
X267Y1628D01*
D02*
X267Y1628D02*
X267Y1657D01*
D02*
X715Y1602D02*
X691Y1628D01*
D02*
X716Y1328D02*
X715Y1602D01*
D02*
X1043Y1328D02*
X716Y1328D01*
D02*
X2291Y1276D02*
X2241Y1328D01*
D02*
X2291Y1253D02*
X2291Y1276D01*
G54D39*
D02*
X566Y1903D02*
X489Y1903D01*
D02*
X591Y1928D02*
X566Y1903D01*
D02*
X591Y2328D02*
X591Y1928D01*
D02*
X598Y2335D02*
X591Y2328D01*
G54D30*
D02*
X3317Y577D02*
X3317Y453D01*
D02*
X3340Y603D02*
X3317Y577D01*
D02*
X3363Y603D02*
X3340Y603D01*
D02*
X3242Y877D02*
X3536Y878D01*
D02*
X3191Y828D02*
X3242Y877D01*
D02*
X3191Y757D02*
X3191Y828D01*
G54D38*
D02*
X2967Y3702D02*
X2991Y3652D01*
D02*
X2967Y3328D02*
X2934Y3328D01*
D02*
X2991Y3352D02*
X2967Y3328D01*
D02*
X2991Y3652D02*
X2991Y3352D01*
D02*
X2915Y3703D02*
X2967Y3702D01*
G54D35*
D02*
X2860Y3328D02*
X2748Y3328D01*
G54D34*
D02*
X641Y3328D02*
X671Y3343D01*
D02*
X391Y3328D02*
X641Y3328D01*
D02*
X365Y3315D02*
X391Y3328D01*
G54D30*
D02*
X1517Y3203D02*
X1367Y3352D01*
D02*
X1517Y3153D02*
X1517Y3203D01*
D02*
X1516Y3154D02*
X1517Y3153D01*
D02*
X1367Y3352D02*
X1294Y3352D01*
D02*
X1615Y3154D02*
X1616Y3152D01*
D02*
X1616Y3203D02*
X1367Y3452D01*
D02*
X1616Y3152D02*
X1616Y3203D01*
G54D34*
D02*
X1141Y3454D02*
X1114Y3453D01*
D02*
X1167Y3202D02*
X1166Y3428D01*
D02*
X1166Y3428D02*
X1141Y3454D01*
D02*
X1191Y3178D02*
X1167Y3202D01*
D02*
X1317Y3153D02*
X1291Y3178D01*
D02*
X1291Y3178D02*
X1191Y3178D01*
D02*
X1319Y3149D02*
X1317Y3153D01*
D02*
X1691Y3504D02*
X1795Y3504D01*
D02*
X1677Y3532D02*
X1691Y3504D01*
G54D31*
D02*
X1991Y3552D02*
X1791Y3552D01*
D02*
X1767Y3578D02*
X1767Y3628D01*
D02*
X1741Y3652D02*
X1691Y3652D01*
D02*
X1767Y3628D02*
X1741Y3652D01*
D02*
X1691Y3652D02*
X1688Y3652D01*
D02*
X1791Y3552D02*
X1767Y3578D01*
D02*
X1997Y3547D02*
X1991Y3552D01*
G54D30*
D02*
X2291Y3604D02*
X2291Y3428D01*
D02*
X2091Y3652D02*
X2116Y3628D01*
D02*
X2116Y3628D02*
X2267Y3628D01*
D02*
X2291Y3428D02*
X2267Y3404D01*
D02*
X2142Y3404D02*
X2116Y3377D01*
D02*
X2267Y3628D02*
X2291Y3604D01*
D02*
X2116Y3377D02*
X2116Y3335D01*
D02*
X2267Y3404D02*
X2142Y3404D01*
D02*
X2091Y3696D02*
X2091Y3652D01*
D02*
X542Y3752D02*
X516Y3779D01*
D02*
X516Y3779D02*
X421Y3778D01*
D02*
X542Y3606D02*
X542Y3752D01*
D02*
X442Y3403D02*
X442Y3603D01*
D02*
X466Y3379D02*
X442Y3403D01*
D02*
X442Y3603D02*
X412Y3631D01*
D02*
X515Y3379D02*
X466Y3379D01*
G54D31*
D02*
X1916Y3304D02*
X1990Y3303D01*
D02*
X1867Y3352D02*
X1916Y3304D01*
D02*
X1688Y3352D02*
X1867Y3352D01*
D02*
X2241Y1328D02*
X1043Y1328D01*
G54D30*
D02*
X3317Y453D02*
X3345Y424D01*
G54D36*
D02*
X2116Y3253D02*
X2116Y3249D01*
D02*
X2065Y3202D02*
X2116Y3253D01*
D02*
X1741Y3202D02*
X2065Y3202D01*
D02*
X1717Y3178D02*
X1741Y3202D01*
D02*
X1717Y3102D02*
X1717Y3178D01*
D02*
X1667Y3052D02*
X1717Y3102D01*
D02*
X917Y3052D02*
X1667Y3052D01*
D02*
X865Y3002D02*
X917Y3052D01*
D02*
X841Y2552D02*
X865Y2578D01*
D02*
X865Y2578D02*
X865Y3002D01*
D02*
X716Y2177D02*
X716Y2428D01*
D02*
X716Y2428D02*
X841Y2552D01*
D02*
X738Y2177D02*
X716Y2177D01*
G54D30*
D02*
X1367Y3452D02*
X1367Y3604D01*
D02*
X1316Y3652D02*
X1294Y3652D01*
D02*
X1367Y3604D02*
X1316Y3652D01*
G04 End of Copper0*
M02*