G04 MADE WITH FRITZING*
G04 WWW.FRITZING.ORG*
G04 DOUBLE SIDED*
G04 HOLES PLATED*
G04 CONTOUR ON CENTER OF CONTOUR VECTOR*
%ASAXBY*%
%FSLAX23Y23*%
%MOIN*%
%OFA0B0*%
%SFA1.0B1.0*%
%ADD10C,0.039370*%
%ADD11C,0.074000*%
%ADD12C,0.165354*%
%ADD13C,0.070000*%
%ADD14C,0.078000*%
%ADD15C,0.075000*%
%ADD16C,0.130000*%
%ADD17C,0.072917*%
%ADD18C,0.082000*%
%ADD19C,0.051496*%
%ADD20C,0.079370*%
%ADD21C,0.062992*%
%ADD22C,0.099055*%
%ADD23R,0.039370X0.045276*%
%ADD24R,0.059055X0.055118*%
%ADD25R,0.055118X0.059055*%
%ADD26R,0.057874X0.050000*%
%ADD27R,0.074000X0.074000*%
%ADD28R,0.070000X0.070000*%
%ADD29R,0.075000X0.075000*%
%ADD30R,0.082000X0.082000*%
%ADD31R,0.079370X0.079370*%
%ADD32R,0.062992X0.062992*%
%ADD33R,0.099055X0.099055*%
%ADD34C,0.024000*%
%ADD35C,0.012000*%
%ADD36C,0.016000*%
%ADD37C,0.048000*%
%ADD38C,0.032000*%
%ADD39C,0.065000*%
%ADD40C,0.080000*%
%LNCOPPER1*%
G90*
G70*
G54D10*
X3566Y1378D03*
X2991Y1103D03*
X2441Y3303D03*
X2341Y3453D03*
X1966Y603D03*
X2491Y1328D03*
X716Y1053D03*
X2441Y2203D03*
X3041Y2728D03*
X1366Y3678D03*
X216Y3853D03*
X3116Y928D03*
X1666Y1003D03*
X2491Y1053D03*
X2591Y678D03*
X2266Y828D03*
X2691Y853D03*
X1166Y703D03*
X2366Y3678D03*
X1066Y928D03*
X1766Y2528D03*
X991Y1153D03*
X1916Y1453D03*
X3666Y1003D03*
X3691Y1303D03*
X2666Y1453D03*
X591Y3103D03*
G54D11*
X616Y2353D03*
X616Y2453D03*
X616Y2553D03*
X616Y2653D03*
X616Y2753D03*
X616Y2853D03*
G54D12*
X144Y2148D03*
X144Y3058D03*
G54D10*
X3491Y2878D03*
X3491Y2703D03*
X3491Y2578D03*
X3066Y603D03*
X3116Y853D03*
X3591Y2878D03*
X2216Y2953D03*
X2016Y2953D03*
X966Y2653D03*
X716Y2553D03*
X341Y1953D03*
X641Y2203D03*
X641Y1753D03*
X2866Y1753D03*
X2966Y2353D03*
X3391Y2378D03*
X1502Y628D03*
G54D13*
X3591Y3003D03*
X3591Y2503D03*
X3491Y3003D03*
X3491Y2503D03*
X3391Y3003D03*
X3391Y2503D03*
X3291Y3003D03*
X3291Y2503D03*
X3191Y3003D03*
X3191Y2503D03*
X3091Y3003D03*
X3091Y2503D03*
X2991Y3003D03*
X2991Y2503D03*
X2891Y3003D03*
X2891Y2503D03*
G54D10*
X3866Y2078D03*
X1566Y3578D03*
X3166Y403D03*
X3791Y1078D03*
X3816Y778D03*
X966Y3303D03*
X1891Y1228D03*
G54D14*
X191Y1553D03*
X291Y1553D03*
X391Y1553D03*
X491Y1553D03*
X591Y1553D03*
X191Y253D03*
X291Y253D03*
X391Y253D03*
X491Y253D03*
X591Y253D03*
X191Y853D03*
X191Y1153D03*
X191Y353D03*
X291Y353D03*
X391Y353D03*
X491Y353D03*
X591Y353D03*
X191Y1353D03*
X191Y1253D03*
X191Y1053D03*
X191Y753D03*
X191Y453D03*
X191Y953D03*
X191Y1453D03*
X191Y653D03*
X191Y553D03*
X291Y853D03*
X291Y1153D03*
X291Y1353D03*
X291Y1253D03*
X291Y1053D03*
X291Y753D03*
X291Y453D03*
X291Y953D03*
X291Y1453D03*
X291Y653D03*
X291Y553D03*
X391Y853D03*
X391Y1153D03*
X391Y1353D03*
X391Y1253D03*
X391Y1053D03*
X391Y753D03*
X391Y453D03*
X391Y953D03*
X391Y1453D03*
X391Y653D03*
X391Y553D03*
X491Y853D03*
X491Y1153D03*
X491Y1353D03*
X491Y1253D03*
X491Y1053D03*
X491Y753D03*
X491Y453D03*
X491Y953D03*
X491Y1453D03*
X491Y653D03*
X491Y553D03*
X591Y453D03*
X591Y553D03*
X591Y653D03*
X591Y753D03*
X591Y853D03*
X591Y953D03*
X591Y1053D03*
X591Y1153D03*
X591Y1253D03*
X591Y1353D03*
X591Y1453D03*
G54D15*
X1891Y728D03*
X1891Y1028D03*
X1991Y728D03*
X1991Y1028D03*
X2091Y728D03*
X2091Y1028D03*
X2191Y728D03*
X2191Y1028D03*
G54D16*
X1241Y2628D03*
X1241Y2828D03*
X1241Y2428D03*
X1241Y2228D03*
X1241Y2628D03*
X1241Y2828D03*
X1241Y2428D03*
X1241Y2228D03*
G54D10*
X1316Y1478D03*
X3316Y1603D03*
X2866Y1503D03*
X1991Y1653D03*
X1541Y1728D03*
X1241Y378D03*
X1066Y353D03*
X166Y2653D03*
X3566Y428D03*
X2541Y2903D03*
X2941Y278D03*
X2791Y1878D03*
X2766Y1828D03*
X1241Y1628D03*
X1341Y1628D03*
G54D15*
X3091Y728D03*
X3091Y1028D03*
X3191Y728D03*
X3191Y1028D03*
X3291Y728D03*
X3291Y1028D03*
X3391Y728D03*
X3391Y1028D03*
G54D11*
X891Y2278D03*
X891Y2178D03*
X891Y2078D03*
X891Y1978D03*
X891Y1878D03*
X891Y1778D03*
X891Y1678D03*
X891Y1578D03*
X891Y1478D03*
X891Y1378D03*
X891Y1278D03*
X891Y1178D03*
X891Y1078D03*
X891Y978D03*
X891Y878D03*
X891Y778D03*
X891Y678D03*
X891Y578D03*
X891Y478D03*
X891Y378D03*
X791Y2278D03*
X791Y2178D03*
X791Y2078D03*
X791Y1978D03*
X791Y1878D03*
X791Y1778D03*
X791Y1678D03*
X791Y1578D03*
X791Y1478D03*
X791Y1378D03*
X791Y1278D03*
X791Y1178D03*
X791Y1078D03*
X791Y978D03*
X791Y878D03*
X791Y778D03*
X791Y678D03*
X791Y578D03*
X791Y478D03*
X791Y378D03*
G54D17*
X2991Y1228D03*
X1391Y1228D03*
X3091Y1228D03*
X3191Y1228D03*
X3291Y1228D03*
X3391Y1228D03*
X3691Y2628D03*
X3491Y1228D03*
X3591Y1228D03*
X1431Y3128D03*
X1991Y1228D03*
X2091Y1228D03*
X2191Y1228D03*
X2291Y1228D03*
X3691Y1828D03*
X2391Y1228D03*
X2491Y1228D03*
X2591Y1228D03*
X2691Y1228D03*
X2191Y3128D03*
X3691Y3028D03*
X3691Y2228D03*
X3691Y1428D03*
X1031Y3128D03*
X1791Y1228D03*
X1791Y3128D03*
X3691Y2828D03*
X3691Y2428D03*
X3691Y2028D03*
X3391Y3128D03*
X3691Y1628D03*
X3291Y3128D03*
X3191Y3128D03*
X3091Y3128D03*
X2991Y3128D03*
X2891Y3128D03*
X2791Y3128D03*
X2691Y3128D03*
X831Y3128D03*
X1231Y3128D03*
X1631Y3128D03*
X1191Y1228D03*
X1591Y1228D03*
X2391Y3128D03*
X1991Y3128D03*
X3691Y3128D03*
X3691Y2928D03*
X3691Y2728D03*
X3691Y2528D03*
X3691Y2328D03*
X3691Y2128D03*
X3691Y1928D03*
X3691Y1728D03*
X3691Y1528D03*
X731Y3128D03*
X931Y3128D03*
X1131Y3128D03*
X1331Y3128D03*
X1531Y3128D03*
X1091Y1228D03*
X1291Y1228D03*
X1491Y1228D03*
X1691Y1228D03*
X2491Y3128D03*
X2291Y3128D03*
X2091Y3128D03*
X1891Y3128D03*
X3791Y3128D03*
X3791Y3028D03*
X3791Y2928D03*
X3791Y2828D03*
X3791Y2728D03*
X3791Y2628D03*
X3791Y2528D03*
X3791Y2428D03*
X3791Y2328D03*
X3791Y2228D03*
X3791Y2128D03*
X3791Y2028D03*
X3791Y1928D03*
X3791Y1828D03*
X3791Y1728D03*
X3791Y1628D03*
X3791Y1528D03*
X3791Y1428D03*
X2891Y1228D03*
G54D18*
X1491Y2503D03*
X1491Y2403D03*
X1491Y2303D03*
X2066Y2478D03*
X1966Y2478D03*
X1866Y2478D03*
X1491Y2928D03*
X1491Y2828D03*
X1491Y2728D03*
X2066Y2228D03*
X1966Y2228D03*
X1866Y2228D03*
G54D13*
X1191Y1378D03*
X1391Y1378D03*
G54D18*
X2566Y3303D03*
X2566Y3601D03*
G54D15*
X466Y1903D03*
X66Y1903D03*
G54D14*
X3566Y528D03*
X3566Y628D03*
X3566Y728D03*
X3566Y1078D03*
X3566Y978D03*
X3566Y878D03*
X2791Y2828D03*
X2791Y2728D03*
X2791Y2628D03*
G54D15*
X2991Y603D03*
X3391Y603D03*
X2991Y503D03*
X3391Y503D03*
G54D14*
X2991Y403D03*
X3091Y403D03*
X3266Y403D03*
X3366Y403D03*
G54D15*
X3591Y1453D03*
X3191Y1453D03*
X2366Y3028D03*
X2366Y2628D03*
X2266Y3028D03*
X2266Y2628D03*
X3566Y2028D03*
X3166Y2028D03*
X3591Y1753D03*
X3191Y1753D03*
X2166Y3028D03*
X2166Y2628D03*
X1666Y2953D03*
X1666Y2553D03*
X3566Y2328D03*
X3166Y2328D03*
G54D18*
X2666Y3703D03*
X2766Y3703D03*
X2866Y3703D03*
G54D13*
X3041Y3728D03*
X3241Y3728D03*
X2891Y3528D03*
X2891Y3328D03*
X3216Y3378D03*
X3216Y3578D03*
X2716Y3528D03*
X2716Y3328D03*
G54D18*
X3066Y3628D03*
X3066Y3330D03*
G54D19*
X3391Y3403D03*
X3391Y3698D03*
X3391Y3403D03*
X3391Y3698D03*
G54D20*
X3066Y1453D03*
X2766Y1453D03*
X3066Y1553D03*
X2766Y1553D03*
X3066Y1653D03*
X2766Y1653D03*
X3066Y1753D03*
X2766Y1753D03*
X3066Y2053D03*
X2766Y2053D03*
X3066Y2153D03*
X2766Y2153D03*
X3066Y2253D03*
X2766Y2253D03*
X3066Y2353D03*
X2766Y2353D03*
G54D15*
X3591Y1553D03*
X3191Y1553D03*
X1866Y3028D03*
X1866Y2628D03*
X1966Y3028D03*
X1966Y2628D03*
X3566Y2128D03*
X3166Y2128D03*
X3591Y1653D03*
X3191Y1653D03*
X2066Y3028D03*
X2066Y2628D03*
X1766Y3028D03*
X1766Y2628D03*
X3566Y2228D03*
X3166Y2228D03*
X2066Y1378D03*
X2066Y1878D03*
X2591Y2503D03*
X2591Y3003D03*
X2191Y1878D03*
X2191Y1378D03*
X2466Y3003D03*
X2466Y2503D03*
X2416Y1778D03*
X2416Y1378D03*
X2266Y2103D03*
X2266Y2503D03*
X2316Y1778D03*
X2316Y1378D03*
X2366Y2103D03*
X2366Y2503D03*
G54D21*
X2493Y1703D03*
X2591Y1703D03*
X2493Y2303D03*
X2591Y2303D03*
X2493Y1503D03*
X2591Y1503D03*
X2493Y2103D03*
X2591Y2103D03*
G54D15*
X1741Y1853D03*
X1741Y1453D03*
G54D13*
X1666Y378D03*
X1466Y378D03*
X1341Y378D03*
X1141Y378D03*
G54D15*
X1666Y703D03*
X1666Y1103D03*
X1466Y703D03*
X1466Y1103D03*
G54D18*
X1191Y778D03*
X1191Y1076D03*
G54D13*
X266Y1678D03*
X466Y1678D03*
X266Y1803D03*
X466Y1803D03*
X2666Y278D03*
X2466Y278D03*
G54D15*
X2766Y678D03*
X2766Y1078D03*
X2341Y678D03*
X2341Y1078D03*
X1641Y1853D03*
X1641Y1453D03*
X1091Y3253D03*
X691Y3253D03*
X1266Y3253D03*
X1666Y3253D03*
X1091Y3553D03*
X691Y3553D03*
X1266Y3553D03*
X1666Y3553D03*
G54D21*
X542Y3281D03*
X542Y3379D03*
X1816Y3305D03*
X1816Y3403D03*
X542Y3481D03*
X542Y3579D03*
X1816Y3505D03*
X1816Y3603D03*
G54D18*
X91Y3653D03*
X389Y3653D03*
X2091Y3728D03*
X1793Y3728D03*
X91Y3778D03*
X389Y3778D03*
X2491Y3728D03*
X2193Y3728D03*
X341Y3303D03*
X241Y3303D03*
X141Y3303D03*
X2016Y3303D03*
X2116Y3303D03*
X2216Y3303D03*
X342Y3529D03*
X242Y3529D03*
X142Y3529D03*
X2016Y3528D03*
X2116Y3528D03*
X2216Y3528D03*
G54D15*
X1091Y3353D03*
X691Y3353D03*
X1265Y3352D03*
X1665Y3352D03*
X1091Y3653D03*
X691Y3653D03*
X1265Y3652D03*
X1665Y3652D03*
X1091Y3453D03*
X691Y3453D03*
X1266Y3453D03*
X1666Y3453D03*
X1091Y3778D03*
X691Y3778D03*
X1266Y3778D03*
X1666Y3778D03*
G54D22*
X3641Y3678D03*
X3641Y3481D03*
G54D23*
X1969Y303D03*
X2068Y303D03*
X2166Y303D03*
X1969Y525D03*
X2068Y525D03*
X2166Y525D03*
G54D24*
X1841Y503D03*
X1841Y422D03*
X2366Y578D03*
X2366Y497D03*
G54D25*
X2591Y578D03*
X2672Y578D03*
G54D24*
X1441Y1453D03*
X1441Y1534D03*
G54D26*
X2441Y3228D03*
X2441Y3397D03*
G54D24*
X2641Y1028D03*
X2641Y1109D03*
X2866Y903D03*
X2866Y984D03*
X1766Y953D03*
X1766Y1034D03*
X1566Y953D03*
X1566Y1034D03*
X1541Y1528D03*
X1541Y1447D03*
X2466Y3553D03*
X2466Y3472D03*
X3791Y878D03*
X3791Y959D03*
G54D25*
X3466Y278D03*
X3547Y278D03*
G54D24*
X2441Y828D03*
X2441Y909D03*
X2541Y828D03*
X2541Y909D03*
X2666Y1553D03*
X2666Y1634D03*
X766Y2803D03*
X766Y2722D03*
X1741Y728D03*
X1741Y647D03*
G54D25*
X1235Y628D03*
X1316Y628D03*
X2841Y1328D03*
X2760Y1328D03*
G54D27*
X616Y2353D03*
G54D28*
X2891Y2503D03*
X3491Y2503D03*
G54D29*
X1891Y728D03*
X3091Y728D03*
G54D27*
X791Y2278D03*
G54D30*
X1491Y2503D03*
X2066Y2478D03*
X1491Y2928D03*
X2066Y2228D03*
X2566Y3302D03*
X2666Y3703D03*
X3066Y3629D03*
G54D31*
X3066Y1453D03*
X3066Y2053D03*
G54D32*
X2493Y1703D03*
X2493Y2303D03*
X2493Y1503D03*
X2493Y2103D03*
G54D30*
X1191Y777D03*
G54D32*
X542Y3281D03*
X1816Y3305D03*
X542Y3481D03*
X1816Y3505D03*
G54D30*
X90Y3653D03*
X2092Y3728D03*
X90Y3778D03*
X2492Y3728D03*
X341Y3303D03*
X2016Y3303D03*
X342Y3529D03*
X2016Y3528D03*
G54D33*
X3641Y3678D03*
G54D34*
X3565Y1428D02*
X3566Y1397D01*
D02*
X3571Y1433D02*
X3565Y1428D01*
D02*
X3761Y1428D02*
X3721Y1428D01*
G54D35*
D02*
X3841Y1378D02*
X3809Y1411D01*
D02*
X3815Y968D02*
X3841Y978D01*
D02*
X3841Y978D02*
X3841Y1378D01*
G54D34*
D02*
X3670Y1449D02*
X3665Y1454D01*
D02*
X3665Y1454D02*
X3620Y1453D01*
D02*
X67Y3628D02*
X69Y3630D01*
D02*
X66Y3428D02*
X67Y3628D01*
D02*
X191Y3403D02*
X91Y3403D01*
D02*
X240Y3353D02*
X191Y3403D01*
D02*
X91Y3403D02*
X66Y3428D01*
D02*
X241Y3335D02*
X240Y3353D01*
G54D36*
D02*
X2267Y604D02*
X2216Y652D01*
D02*
X1842Y428D02*
X1841Y422D01*
D02*
X1942Y428D02*
X1842Y428D01*
D02*
X1969Y508D02*
X1967Y452D01*
D02*
X1967Y452D02*
X1942Y428D01*
D02*
X1840Y604D02*
X1842Y652D01*
D02*
X1841Y525D02*
X1840Y604D01*
D02*
X2316Y528D02*
X2180Y526D01*
D02*
X2342Y512D02*
X2316Y528D01*
D02*
X2316Y604D02*
X2267Y604D01*
D02*
X2342Y590D02*
X2316Y604D01*
G54D34*
D02*
X1342Y1452D02*
X1330Y1465D01*
D02*
X1417Y1453D02*
X1342Y1452D01*
D02*
X1240Y652D02*
X1240Y779D01*
D02*
X1240Y652D02*
X1240Y652D01*
D02*
X1240Y779D02*
X1223Y779D01*
D02*
X2042Y604D02*
X1985Y603D01*
D02*
X2067Y577D02*
X2042Y604D01*
D02*
X2067Y543D02*
X2067Y577D01*
G54D35*
D02*
X2140Y2077D02*
X2166Y2103D01*
D02*
X2266Y2453D02*
X2266Y2480D01*
D02*
X2166Y2353D02*
X2266Y2453D01*
D02*
X2166Y2103D02*
X2166Y2353D01*
D02*
X1317Y2077D02*
X2140Y2077D01*
D02*
X842Y1704D02*
X867Y1728D01*
D02*
X941Y1728D02*
X1317Y2077D01*
D02*
X867Y1728D02*
X941Y1728D01*
G54D37*
D02*
X1242Y2103D02*
X1241Y2171D01*
D02*
X922Y1807D02*
X1242Y2103D01*
G54D35*
D02*
X816Y1704D02*
X842Y1704D01*
D02*
X809Y1696D02*
X816Y1704D01*
D02*
X2291Y2577D02*
X2566Y2577D01*
D02*
X2566Y2577D02*
X2591Y2553D01*
G54D34*
D02*
X2095Y2628D02*
X2138Y2628D01*
G54D35*
D02*
X2266Y2553D02*
X2291Y2577D01*
D02*
X2591Y2553D02*
X2591Y2526D01*
D02*
X2266Y2526D02*
X2266Y2553D01*
G54D34*
D02*
X1467Y1852D02*
X1613Y1853D01*
D02*
X1441Y1556D02*
X1442Y1828D01*
D02*
X1442Y1828D02*
X1467Y1852D01*
D02*
X2241Y2703D02*
X2266Y2677D01*
D02*
X1991Y2703D02*
X2241Y2703D01*
D02*
X1967Y2677D02*
X1991Y2703D01*
D02*
X2266Y2677D02*
X2266Y2657D01*
D02*
X639Y3554D02*
X591Y3479D01*
D02*
X1966Y2657D02*
X1967Y2677D01*
D02*
X1670Y1853D02*
X1713Y1853D01*
D02*
X3191Y2853D02*
X3191Y2977D01*
D02*
X3166Y2828D02*
X3191Y2853D01*
D02*
X3091Y2828D02*
X3091Y2977D01*
D02*
X3091Y2828D02*
X3166Y2828D01*
D02*
X2821Y2828D02*
X3091Y2828D01*
D02*
X2467Y1777D02*
X2445Y1777D01*
D02*
X2491Y1752D02*
X2467Y1777D01*
D02*
X591Y3479D02*
X569Y3480D01*
D02*
X2492Y1730D02*
X2491Y1752D01*
D02*
X663Y3554D02*
X639Y3554D01*
D02*
X2491Y1578D02*
X2335Y1756D01*
D02*
X3661Y2128D02*
X3595Y2128D01*
D02*
X3595Y2228D02*
X3661Y2228D01*
D02*
X1717Y3304D02*
X1789Y3304D01*
D02*
X242Y3752D02*
X216Y3777D01*
D02*
X216Y3777D02*
X123Y3778D01*
D02*
X2492Y1530D02*
X2491Y1578D01*
D02*
X1686Y3273D02*
X1717Y3304D01*
D02*
X242Y3561D02*
X242Y3752D01*
D02*
X591Y3253D02*
X566Y3268D01*
D02*
X663Y3253D02*
X591Y3253D01*
D02*
X2442Y3428D02*
X2442Y3417D01*
G54D35*
D02*
X2417Y3253D02*
X2422Y3247D01*
D02*
X2391Y3253D02*
X2417Y3253D01*
G54D34*
D02*
X2454Y3450D02*
X2442Y3428D01*
G54D35*
D02*
X2391Y3253D02*
X2291Y3178D01*
G54D34*
D02*
X2466Y3628D02*
X2417Y3677D01*
D02*
X2417Y3677D02*
X2385Y3678D01*
D02*
X2466Y3575D02*
X2466Y3628D01*
G54D36*
D02*
X3667Y2928D02*
X3606Y2989D01*
D02*
X3667Y2928D02*
X3667Y2928D01*
G54D35*
D02*
X2291Y3178D02*
X2291Y3153D01*
D02*
X2391Y3628D02*
X2391Y3253D01*
D02*
X2372Y3666D02*
X2391Y3628D01*
G54D36*
D02*
X1842Y652D02*
X2216Y652D01*
D02*
X2316Y753D02*
X3016Y753D01*
D02*
X2216Y652D02*
X2316Y753D01*
D02*
X1766Y728D02*
X1842Y652D01*
D02*
X1765Y728D02*
X1766Y728D01*
G54D35*
D02*
X2341Y1003D02*
X2341Y1055D01*
D02*
X1917Y953D02*
X2291Y952D01*
D02*
X2291Y952D02*
X2341Y1003D01*
D02*
X1891Y751D02*
X1891Y928D01*
D02*
X1891Y928D02*
X1917Y953D01*
G54D34*
D02*
X2517Y828D02*
X2465Y828D01*
G54D35*
D02*
X2416Y903D02*
X2116Y903D01*
D02*
X2116Y903D02*
X2091Y878D01*
D02*
X2417Y903D02*
X2416Y903D01*
D02*
X2091Y878D02*
X2091Y751D01*
G54D36*
D02*
X3041Y928D02*
X3103Y928D01*
D02*
X3016Y903D02*
X3041Y928D01*
G54D35*
D02*
X2366Y978D02*
X2741Y978D01*
D02*
X2316Y928D02*
X2366Y978D01*
D02*
X2741Y978D02*
X2766Y1003D01*
D02*
X2766Y1003D02*
X2766Y1055D01*
D02*
X2016Y928D02*
X2316Y928D01*
D02*
X1991Y903D02*
X2016Y928D01*
D02*
X1991Y751D02*
X1991Y903D01*
G54D34*
D02*
X2991Y574D02*
X2991Y532D01*
G54D35*
D02*
X3016Y1028D02*
X2991Y1003D01*
D02*
X2566Y778D02*
X2541Y803D01*
D02*
X2966Y778D02*
X2566Y778D01*
D02*
X2541Y803D02*
X2541Y806D01*
D02*
X2991Y1003D02*
X2991Y803D01*
D02*
X3068Y1028D02*
X3016Y1028D01*
D02*
X2991Y803D02*
X2966Y778D01*
G54D34*
D02*
X1613Y1453D02*
X1591Y1453D01*
D02*
X1591Y1453D02*
X1565Y1450D01*
D02*
X1679Y677D02*
X1691Y652D01*
D02*
X1691Y652D02*
X1717Y650D01*
D02*
X1566Y1078D02*
X1566Y1056D01*
D02*
X1495Y1103D02*
X1541Y1103D01*
D02*
X1541Y1103D02*
X1566Y1078D01*
D02*
X1666Y953D02*
X1590Y953D01*
D02*
X1666Y953D02*
X1742Y953D01*
D02*
X1666Y984D02*
X1666Y953D01*
D02*
X2491Y3478D02*
X2490Y3478D01*
D02*
X2542Y3477D02*
X2491Y3478D01*
D02*
X2566Y3453D02*
X2542Y3477D01*
D02*
X2566Y3335D02*
X2566Y3453D01*
D02*
X1091Y3749D02*
X1091Y3682D01*
D02*
X1265Y3681D02*
X1266Y3749D01*
D02*
X2865Y1076D02*
X2795Y1077D01*
D02*
X2865Y1076D02*
X2865Y1176D01*
D02*
X2865Y1176D02*
X2878Y1201D01*
D02*
X2866Y1006D02*
X2865Y1076D01*
D02*
X3267Y277D02*
X3266Y373D01*
G54D35*
D02*
X3741Y878D02*
X3767Y878D01*
D02*
X3715Y854D02*
X3741Y878D01*
G54D37*
D02*
X1793Y2515D02*
X1828Y2497D01*
G54D34*
D02*
X1574Y1253D02*
X1456Y1431D01*
D02*
X2666Y1531D02*
X2666Y1472D01*
D02*
X2691Y1652D02*
X2690Y1651D01*
D02*
X2735Y1653D02*
X2691Y1652D01*
D02*
X2741Y2278D02*
X2690Y2282D01*
D02*
X2744Y2275D02*
X2741Y2278D01*
D02*
X2650Y1464D02*
X2614Y1488D01*
G54D36*
D02*
X766Y2722D02*
X767Y2702D01*
D02*
X767Y2702D02*
X634Y2571D01*
G54D35*
D02*
X2217Y1728D02*
X2567Y1328D01*
D02*
X1767Y1728D02*
X2217Y1728D01*
D02*
X2567Y1328D02*
X2738Y1328D01*
D02*
X1742Y1753D02*
X1767Y1728D01*
D02*
X1741Y1830D02*
X1742Y1753D01*
G54D34*
D02*
X561Y353D02*
X521Y353D01*
D02*
X461Y353D02*
X421Y353D01*
D02*
X361Y353D02*
X321Y353D01*
D02*
X261Y353D02*
X221Y353D01*
G54D38*
D02*
X3491Y2553D02*
X3491Y2535D01*
G54D34*
D02*
X2206Y2969D02*
X2182Y3004D01*
D02*
X2227Y2969D02*
X2250Y3004D01*
D02*
X1340Y477D02*
X1341Y404D01*
D02*
X1488Y615D02*
X1340Y477D01*
G54D36*
D02*
X2867Y1304D02*
X3367Y1302D01*
D02*
X3367Y1302D02*
X3391Y1328D01*
D02*
X3391Y1328D02*
X3391Y2365D01*
D02*
X2863Y1307D02*
X2867Y1304D01*
G54D35*
D02*
X3616Y2078D02*
X3853Y2078D01*
D02*
X3582Y2044D02*
X3616Y2078D01*
G54D34*
D02*
X642Y252D02*
X621Y253D01*
D02*
X521Y253D02*
X561Y253D01*
D02*
X667Y277D02*
X642Y252D01*
G54D35*
D02*
X716Y1252D02*
X716Y1304D01*
D02*
X773Y1196D02*
X716Y1252D01*
D02*
X716Y1304D02*
X773Y1360D01*
G54D34*
D02*
X492Y1678D02*
X591Y1677D01*
D02*
X591Y1677D02*
X769Y1500D01*
D02*
X791Y1409D02*
X791Y1447D01*
D02*
X461Y1553D02*
X421Y1553D01*
D02*
X561Y1553D02*
X521Y1553D01*
G54D35*
D02*
X141Y553D02*
X167Y553D01*
D02*
X91Y853D02*
X167Y853D01*
D02*
X116Y653D02*
X167Y653D01*
G54D34*
D02*
X221Y253D02*
X261Y253D01*
D02*
X321Y253D02*
X361Y253D01*
D02*
X421Y253D02*
X461Y253D01*
G54D36*
D02*
X1517Y1179D02*
X1491Y1153D01*
D02*
X1966Y1177D02*
X1517Y1179D01*
D02*
X1991Y1203D02*
X1966Y1177D01*
D02*
X1491Y1153D02*
X1476Y1124D01*
D02*
X1717Y1303D02*
X1691Y1277D01*
D02*
X1866Y1303D02*
X1717Y1303D01*
D02*
X1891Y1277D02*
X1866Y1303D01*
D02*
X1691Y1277D02*
X1691Y1253D01*
D02*
X1891Y1241D02*
X1891Y1277D01*
G54D34*
D02*
X391Y1728D02*
X448Y1785D01*
D02*
X391Y1583D02*
X391Y1728D01*
D02*
X261Y1553D02*
X221Y1553D01*
D02*
X361Y1553D02*
X321Y1553D01*
G54D36*
D02*
X1991Y1203D02*
X1991Y1203D01*
G54D34*
D02*
X3267Y277D02*
X3444Y278D01*
D02*
X2960Y278D02*
X3267Y277D01*
D02*
X2091Y1103D02*
X2091Y1057D01*
D02*
X1191Y878D02*
X1191Y810D01*
G54D37*
D02*
X3391Y3479D02*
X3391Y3441D01*
D02*
X3217Y3479D02*
X3216Y3541D01*
D02*
X2691Y3628D02*
X3023Y3628D01*
D02*
X2666Y3653D02*
X2691Y3628D01*
D02*
X2666Y3660D02*
X2666Y3653D01*
D02*
X2617Y3228D02*
X2591Y3203D01*
D02*
X2666Y2753D02*
X2762Y2657D01*
D02*
X2666Y3028D02*
X2666Y2753D01*
D02*
X2591Y3103D02*
X2666Y3028D01*
D02*
X2591Y3203D02*
X2591Y3103D01*
D02*
X2766Y3228D02*
X2617Y3228D01*
D02*
X2791Y3253D02*
X2766Y3228D01*
D02*
X2817Y3453D02*
X2791Y3428D01*
D02*
X2966Y3453D02*
X2817Y3453D01*
D02*
X3017Y3477D02*
X2966Y3453D01*
D02*
X2791Y3428D02*
X2791Y3253D01*
D02*
X3066Y3479D02*
X3017Y3477D01*
D02*
X3142Y3703D02*
X3172Y3730D01*
D02*
X3172Y3730D02*
X3204Y3729D01*
D02*
X3142Y3477D02*
X3142Y3703D01*
D02*
X1067Y2653D02*
X1201Y2788D01*
D02*
X1067Y2128D02*
X1067Y2653D01*
D02*
X923Y2005D02*
X1067Y2128D01*
D02*
X1142Y2528D02*
X1201Y2587D01*
D02*
X1142Y2103D02*
X1142Y2528D01*
D02*
X923Y1906D02*
X1142Y2103D01*
G54D39*
D02*
X845Y2278D02*
X838Y2278D01*
G54D38*
D02*
X2282Y1378D02*
X2225Y1378D01*
G54D34*
D02*
X1741Y878D02*
X1741Y750D01*
G54D35*
D02*
X2142Y1152D02*
X2191Y1104D01*
D02*
X2191Y1104D02*
X2191Y1051D01*
D02*
X2142Y1328D02*
X2142Y1152D01*
D02*
X2142Y1328D02*
X2242Y1328D01*
D02*
X2367Y1304D02*
X2391Y1277D01*
D02*
X2267Y1304D02*
X2367Y1304D01*
D02*
X2242Y1328D02*
X2267Y1304D01*
D02*
X1667Y1328D02*
X2142Y1328D01*
D02*
X1642Y1352D02*
X1667Y1328D01*
D02*
X2391Y1277D02*
X2391Y1253D01*
D02*
X1641Y1430D02*
X1642Y1352D01*
G54D34*
D02*
X1767Y1104D02*
X1766Y1056D01*
D02*
X2091Y1103D02*
X2091Y1198D01*
D02*
X1767Y1104D02*
X2091Y1103D01*
D02*
X1695Y1103D02*
X1767Y1104D01*
D02*
X1891Y978D02*
X1891Y999D01*
D02*
X1791Y878D02*
X1891Y978D01*
D02*
X1741Y878D02*
X1791Y878D01*
G54D37*
D02*
X3142Y3477D02*
X3217Y3479D01*
D02*
X3391Y3479D02*
X3589Y3481D01*
D02*
X3217Y3479D02*
X3391Y3479D01*
D02*
X3066Y3479D02*
X3142Y3477D01*
D02*
X3066Y3373D02*
X3066Y3479D01*
G54D34*
D02*
X378Y1902D02*
X95Y1903D01*
D02*
X378Y1802D02*
X378Y1902D01*
D02*
X284Y1697D02*
X378Y1802D01*
G54D40*
D02*
X1291Y2203D02*
X1566Y2203D01*
D02*
X1566Y2203D02*
X1691Y2328D01*
D02*
X1691Y2328D02*
X1966Y2328D01*
D02*
X1966Y2328D02*
X1966Y2288D01*
D02*
X1307Y2195D02*
X1291Y2203D01*
D02*
X1366Y2628D02*
X1366Y2403D01*
D02*
X1366Y2403D02*
X1431Y2403D01*
D02*
X1315Y2628D02*
X1366Y2628D01*
D02*
X1315Y2828D02*
X1431Y2828D01*
G54D34*
D02*
X667Y1028D02*
X667Y277D01*
D02*
X667Y1104D02*
X667Y1028D01*
G54D35*
D02*
X3416Y2904D02*
X3267Y2904D01*
D02*
X3116Y3052D02*
X3091Y3077D01*
D02*
X3242Y3028D02*
X3216Y3052D01*
D02*
X3242Y2928D02*
X3242Y3028D01*
D02*
X3267Y2904D02*
X3242Y2928D01*
D02*
X3216Y3052D02*
X3116Y3052D01*
D02*
X3091Y3077D02*
X3091Y3103D01*
D02*
X3442Y2877D02*
X3416Y2904D01*
D02*
X3442Y2428D02*
X3442Y2877D01*
D02*
X3440Y1428D02*
X3442Y2428D01*
D02*
X3516Y2952D02*
X3542Y2928D01*
D02*
X3342Y2977D02*
X3367Y2952D01*
D02*
X3367Y2952D02*
X3516Y2952D01*
D02*
X3542Y2404D02*
X3491Y2352D01*
D02*
X3542Y2928D02*
X3542Y2404D01*
D02*
X3340Y3028D02*
X3342Y2977D01*
D02*
X3267Y3052D02*
X3316Y3052D01*
D02*
X3316Y3052D02*
X3340Y3028D01*
D02*
X3209Y3111D02*
X3267Y3052D01*
D02*
X3541Y1102D02*
X3549Y1095D01*
D02*
X3541Y1278D02*
X3541Y1102D01*
D02*
X3491Y1328D02*
X3541Y1278D01*
D02*
X3491Y2352D02*
X3491Y1328D01*
G54D34*
D02*
X1316Y1378D02*
X1365Y1378D01*
D02*
X1291Y1353D02*
X1316Y1378D01*
D02*
X1291Y1258D02*
X1291Y1353D01*
G54D35*
D02*
X91Y179D02*
X116Y152D01*
D02*
X91Y628D02*
X91Y179D01*
D02*
X116Y653D02*
X91Y628D01*
D02*
X3866Y153D02*
X3891Y177D01*
D02*
X3891Y1704D02*
X3867Y1728D01*
D02*
X116Y152D02*
X3866Y153D01*
D02*
X3891Y177D02*
X3891Y1704D01*
D02*
X3867Y1728D02*
X3816Y1728D01*
D02*
X67Y828D02*
X67Y152D01*
D02*
X91Y853D02*
X67Y828D01*
D02*
X67Y152D02*
X91Y128D01*
D02*
X116Y528D02*
X116Y204D01*
D02*
X141Y553D02*
X116Y528D01*
D02*
X116Y204D02*
X140Y177D01*
D02*
X3840Y177D02*
X3866Y203D01*
D02*
X3867Y1604D02*
X3841Y1628D01*
G54D34*
D02*
X991Y478D02*
X1016Y453D01*
D02*
X1016Y453D02*
X1016Y277D01*
D02*
X1042Y252D02*
X2416Y252D01*
D02*
X1016Y277D02*
X1042Y252D01*
D02*
X922Y478D02*
X991Y478D01*
D02*
X2416Y252D02*
X2443Y266D01*
D02*
X2691Y204D02*
X967Y204D01*
D02*
X967Y204D02*
X891Y278D01*
D02*
X891Y278D02*
X891Y347D01*
D02*
X2766Y278D02*
X2691Y204D01*
D02*
X2766Y578D02*
X2766Y278D01*
G54D35*
D02*
X140Y177D02*
X3840Y177D01*
D02*
X3866Y203D02*
X3867Y1604D01*
D02*
X3841Y1628D02*
X3816Y1628D01*
D02*
X3891Y128D02*
X3917Y153D01*
D02*
X3915Y1802D02*
X3891Y1828D01*
D02*
X91Y128D02*
X3891Y128D01*
D02*
X3917Y153D02*
X3915Y1802D01*
D02*
X3891Y1828D02*
X3816Y1828D01*
G54D34*
D02*
X667Y1128D02*
X667Y1104D01*
D02*
X642Y1553D02*
X667Y1528D01*
D02*
X667Y1528D02*
X667Y1128D01*
D02*
X621Y1553D02*
X642Y1553D01*
D02*
X767Y1104D02*
X770Y1101D01*
D02*
X667Y1104D02*
X767Y1104D01*
D02*
X3616Y279D02*
X3642Y304D01*
D02*
X3569Y278D02*
X3616Y279D01*
D02*
X3642Y304D02*
X3642Y603D01*
D02*
X1191Y878D02*
X991Y1078D01*
D02*
X1391Y878D02*
X1291Y878D01*
D02*
X1291Y878D02*
X1191Y878D01*
D02*
X1741Y878D02*
X1391Y878D01*
D02*
X3617Y628D02*
X3596Y628D01*
D02*
X3642Y603D02*
X3617Y628D01*
G54D38*
D02*
X2667Y2003D02*
X2691Y1977D01*
D02*
X1415Y2002D02*
X2667Y2003D01*
D02*
X2691Y1977D02*
X2867Y1977D01*
D02*
X2891Y2004D02*
X2891Y2404D01*
D02*
X2916Y2428D02*
X3016Y2428D01*
D02*
X3016Y2428D02*
X3069Y2481D01*
D02*
X2891Y2404D02*
X2916Y2428D01*
D02*
X2867Y1977D02*
X2891Y2004D01*
D02*
X917Y1504D02*
X1415Y2002D01*
G54D34*
D02*
X2091Y1477D02*
X2067Y1452D01*
D02*
X2391Y1477D02*
X2091Y1477D01*
D02*
X2416Y1452D02*
X2391Y1477D01*
D02*
X2067Y1452D02*
X2066Y1407D01*
D02*
X2416Y1407D02*
X2416Y1452D01*
G54D38*
D02*
X917Y1204D02*
X1324Y1611D01*
D02*
X917Y1304D02*
X1224Y1611D01*
D02*
X3342Y2428D02*
X3367Y2452D01*
D02*
X3391Y2477D02*
X3391Y2471D01*
D02*
X3367Y2452D02*
X3391Y2477D01*
D02*
X3341Y1902D02*
X3342Y2428D01*
D02*
X3267Y1828D02*
X3341Y1902D01*
D02*
X2791Y1828D02*
X3267Y1828D01*
D02*
X3241Y1878D02*
X3291Y1928D01*
D02*
X3291Y1928D02*
X3291Y2471D01*
D02*
X2816Y1878D02*
X3241Y1878D01*
D02*
X3216Y1928D02*
X3242Y1952D01*
D02*
X3242Y2428D02*
X3209Y2477D01*
D02*
X1467Y1952D02*
X2642Y1953D01*
D02*
X2642Y1953D02*
X2667Y1928D01*
D02*
X2667Y1928D02*
X3216Y1928D01*
D02*
X3242Y1952D02*
X3242Y2428D01*
D02*
X917Y1404D02*
X1467Y1952D01*
G54D35*
D02*
X3441Y1178D02*
X3440Y1428D01*
D02*
X3467Y1154D02*
X3441Y1178D01*
D02*
X3467Y878D02*
X3467Y1154D01*
G54D34*
D02*
X2991Y3098D02*
X2991Y3029D01*
D02*
X2891Y3098D02*
X2891Y3029D01*
D02*
X3642Y1552D02*
X3620Y1553D01*
D02*
X3642Y1652D02*
X3620Y1653D01*
D02*
X3664Y1642D02*
X3642Y1652D01*
D02*
X3664Y1542D02*
X3642Y1552D01*
G54D35*
D02*
X3691Y728D02*
X3716Y753D01*
D02*
X3716Y753D02*
X3715Y854D01*
D02*
X3591Y728D02*
X3691Y728D01*
D02*
X2167Y2052D02*
X2191Y2078D01*
D02*
X1342Y2053D02*
X2167Y2052D01*
G54D40*
D02*
X791Y1819D02*
X791Y1837D01*
G54D35*
D02*
X2191Y2328D02*
X2350Y2487D01*
D02*
X2191Y2078D02*
X2191Y2328D01*
D02*
X942Y1677D02*
X1342Y2053D01*
D02*
X917Y1678D02*
X942Y1677D01*
G54D34*
D02*
X991Y1078D02*
X922Y1078D01*
G54D39*
D02*
X791Y2025D02*
X791Y2031D01*
G54D34*
D02*
X822Y1078D02*
X860Y1078D01*
D02*
X1391Y1077D02*
X1391Y878D01*
D02*
X1391Y1128D02*
X1391Y1077D01*
D02*
X1466Y1203D02*
X1391Y1128D01*
D02*
X1470Y1207D02*
X1466Y1203D01*
G54D38*
D02*
X2466Y2778D02*
X2465Y2876D01*
D02*
X2666Y2577D02*
X2466Y2778D01*
D02*
X2465Y2876D02*
X2466Y2969D01*
G54D34*
D02*
X1566Y2928D02*
X1616Y2877D01*
G54D38*
D02*
X2667Y2453D02*
X2666Y2577D01*
G54D34*
D02*
X1523Y2928D02*
X1566Y2928D01*
D02*
X1616Y2877D02*
X1942Y2877D01*
G54D38*
D02*
X2767Y2377D02*
X2667Y2453D01*
D02*
X2767Y2389D02*
X2767Y2377D01*
G54D34*
D02*
X1591Y2803D02*
X1616Y2828D01*
D02*
X1616Y2828D02*
X1842Y2828D01*
D02*
X1842Y2828D02*
X1867Y2803D01*
D02*
X1967Y2853D02*
X1966Y2657D01*
D02*
X1967Y3103D02*
X1970Y3107D01*
D02*
X1966Y3057D02*
X1967Y3103D01*
D02*
X2067Y3103D02*
X2070Y3107D01*
D02*
X2066Y3057D02*
X2067Y3103D01*
D02*
X1942Y2877D02*
X1967Y2853D01*
D02*
X1591Y2503D02*
X1591Y2803D01*
D02*
X1523Y2503D02*
X1591Y2503D01*
D02*
X1867Y2803D02*
X1866Y2657D01*
D02*
X1791Y3078D02*
X1791Y3098D01*
D02*
X1867Y3103D02*
X1870Y3107D01*
D02*
X1866Y3057D02*
X1867Y3103D01*
D02*
X1779Y3054D02*
X1791Y3078D01*
G54D35*
D02*
X3217Y3802D02*
X3241Y3778D01*
D02*
X3241Y3778D02*
X3241Y3749D01*
D02*
X1441Y3691D02*
X1441Y3552D01*
D02*
X1704Y3715D02*
X1778Y3802D01*
D02*
X1778Y3802D02*
X3217Y3802D01*
D02*
X1441Y3552D02*
X1441Y3278D01*
D02*
X1441Y3278D02*
X1417Y3254D01*
D02*
X1467Y3715D02*
X1704Y3715D01*
D02*
X1467Y3715D02*
X1441Y3691D01*
D02*
X1417Y3254D02*
X1289Y3253D01*
G54D36*
D02*
X967Y3377D02*
X1075Y3269D01*
G54D35*
D02*
X1441Y3552D02*
X1289Y3553D01*
G54D36*
D02*
X967Y3528D02*
X967Y3377D01*
D02*
X1068Y3553D02*
X991Y3552D01*
D02*
X991Y3552D02*
X967Y3528D01*
G54D34*
D02*
X1741Y3654D02*
X1775Y3702D01*
D02*
X1742Y3479D02*
X1741Y3654D01*
D02*
X1797Y3422D02*
X1742Y3479D01*
D02*
X2442Y3753D02*
X2317Y3753D01*
D02*
X2463Y3743D02*
X2442Y3753D01*
D02*
X2317Y3753D02*
X2138Y3552D01*
D02*
X440Y3528D02*
X374Y3529D01*
D02*
X467Y3552D02*
X440Y3528D01*
D02*
X465Y3628D02*
X467Y3552D01*
D02*
X491Y3654D02*
X465Y3628D01*
D02*
X663Y3653D02*
X491Y3654D01*
D02*
X1841Y3628D02*
X1835Y3622D01*
D02*
X2141Y3628D02*
X1841Y3628D01*
D02*
X2191Y3678D02*
X2141Y3628D01*
D02*
X2192Y3696D02*
X2191Y3678D01*
D02*
X3191Y928D02*
X3191Y999D01*
D02*
X3240Y879D02*
X3191Y928D01*
D02*
X3467Y878D02*
X3240Y879D01*
D02*
X3566Y779D02*
X3467Y878D01*
D02*
X3566Y758D02*
X3566Y779D01*
D02*
X1742Y2777D02*
X1767Y2753D01*
D02*
X1767Y2753D02*
X1766Y2657D01*
D02*
X1666Y2428D02*
X1666Y2524D01*
D02*
X1691Y2403D02*
X1666Y2428D01*
D02*
X2042Y2403D02*
X1691Y2403D01*
D02*
X2066Y2377D02*
X2042Y2403D01*
D02*
X1666Y2753D02*
X1691Y2778D01*
D02*
X1666Y2582D02*
X1666Y2753D01*
D02*
X1691Y2778D02*
X1742Y2777D01*
D02*
X2066Y2260D02*
X2066Y2377D01*
D02*
X2066Y2599D02*
X2066Y2510D01*
G54D38*
D02*
X2566Y3328D02*
X2685Y3328D01*
D02*
X2566Y3341D02*
X2566Y3328D01*
D02*
X2567Y1877D02*
X2225Y1878D01*
D02*
X2691Y1753D02*
X2567Y1877D01*
D02*
X2730Y1753D02*
X2691Y1753D01*
D02*
X2842Y2403D02*
X2842Y2177D01*
D02*
X2842Y2177D02*
X2816Y2152D01*
D02*
X2717Y2603D02*
X2716Y2503D01*
D02*
X2591Y2728D02*
X2717Y2603D01*
D02*
X2716Y2503D02*
X2842Y2403D01*
D02*
X2816Y2152D02*
X2803Y2153D01*
D02*
X2591Y2969D02*
X2591Y2728D01*
G54D34*
D02*
X3466Y577D02*
X3517Y528D01*
D02*
X3517Y528D02*
X3536Y528D01*
D02*
X3466Y803D02*
X3466Y577D01*
D02*
X3442Y828D02*
X3466Y803D01*
D02*
X3342Y828D02*
X3442Y828D01*
D02*
X3291Y777D02*
X3342Y828D01*
D02*
X3291Y757D02*
X3291Y777D01*
D02*
X3091Y503D02*
X3363Y503D01*
D02*
X3013Y424D02*
X3091Y503D01*
D02*
X3191Y1724D02*
X3191Y1682D01*
D02*
X3166Y2328D02*
X3166Y2257D01*
D02*
X3191Y1524D02*
X3191Y1482D01*
D02*
X3166Y2099D02*
X3166Y2057D01*
D02*
X3097Y1553D02*
X3163Y1553D01*
D02*
X3090Y1734D02*
X3169Y1671D01*
G54D37*
D02*
X3791Y3228D02*
X3791Y3169D01*
D02*
X3691Y3228D02*
X3791Y3228D01*
D02*
X2917Y3252D02*
X2891Y3278D01*
D02*
X3641Y3252D02*
X2917Y3252D01*
D02*
X2891Y3278D02*
X2891Y3291D01*
D02*
X3691Y3228D02*
X3641Y3252D01*
D02*
X3691Y3169D02*
X3691Y3228D01*
G54D34*
D02*
X3096Y2146D02*
X3138Y2135D01*
G54D36*
D02*
X3082Y2333D02*
X3152Y2246D01*
G54D38*
D02*
X2400Y2503D02*
X2432Y2503D01*
G54D34*
D02*
X2466Y2103D02*
X2395Y2103D01*
D02*
X2291Y2303D02*
X2267Y2277D01*
D02*
X2267Y2277D02*
X2266Y2132D01*
D02*
X2466Y2303D02*
X2291Y2303D01*
D02*
X1091Y3424D02*
X1091Y3382D01*
D02*
X1266Y3424D02*
X1266Y3381D01*
D02*
X2766Y649D02*
X2766Y578D01*
D02*
X2766Y578D02*
X2694Y578D01*
D02*
X1741Y578D02*
X1741Y625D01*
D02*
X1716Y553D02*
X1741Y578D01*
D02*
X1567Y552D02*
X1716Y553D01*
D02*
X1491Y552D02*
X1567Y552D01*
D02*
X1466Y528D02*
X1491Y552D01*
D02*
X1466Y404D02*
X1466Y528D01*
D02*
X2442Y677D02*
X2370Y678D01*
D02*
X2467Y652D02*
X2442Y677D01*
D02*
X2466Y304D02*
X2467Y652D01*
D02*
X2616Y1128D02*
X2617Y1127D01*
D02*
X2341Y1128D02*
X2616Y1128D01*
D02*
X2316Y1153D02*
X2341Y1128D01*
D02*
X2217Y1154D02*
X2316Y1153D01*
D02*
X2191Y1176D02*
X2217Y1154D01*
D02*
X2191Y1198D02*
X2191Y1176D01*
D02*
X1317Y578D02*
X1317Y604D01*
D02*
X1141Y428D02*
X1317Y578D01*
D02*
X1141Y404D02*
X1141Y428D01*
D02*
X1417Y628D02*
X1338Y628D01*
D02*
X1451Y679D02*
X1417Y628D01*
G54D36*
D02*
X1419Y3149D02*
X1417Y3153D01*
D02*
X1417Y3153D02*
X1391Y3178D01*
D02*
X1217Y3178D02*
X1191Y3204D01*
D02*
X1391Y3178D02*
X1217Y3178D01*
D02*
X1191Y3204D02*
X1191Y3628D01*
D02*
X1191Y3628D02*
X1167Y3652D01*
D02*
X1167Y3652D02*
X1114Y3653D01*
G54D13*
D02*
X516Y3152D02*
X440Y3204D01*
D02*
X515Y2128D02*
X516Y3152D01*
D02*
X738Y2078D02*
X567Y2077D01*
D02*
X567Y2077D02*
X515Y2128D01*
D02*
X440Y3204D02*
X441Y3403D01*
D02*
X441Y3403D02*
X416Y3428D01*
D02*
X266Y3428D02*
X241Y3453D01*
D02*
X241Y3453D02*
X241Y3475D01*
D02*
X416Y3428D02*
X266Y3428D01*
G54D39*
D02*
X1866Y3228D02*
X1891Y3253D01*
D02*
X867Y2578D02*
X867Y3002D01*
D02*
X791Y2504D02*
X867Y2578D01*
D02*
X791Y2331D02*
X791Y2504D01*
D02*
X867Y3002D02*
X915Y3052D01*
D02*
X915Y3052D02*
X1667Y3052D01*
D02*
X1667Y3052D02*
X1717Y3102D01*
D02*
X1717Y3102D02*
X1717Y3178D01*
D02*
X1717Y3178D02*
X1767Y3228D01*
D02*
X1767Y3228D02*
X1866Y3228D01*
D02*
X2116Y3478D02*
X2116Y3474D01*
D02*
X2091Y3428D02*
X2116Y3478D01*
D02*
X1917Y3428D02*
X2091Y3428D01*
D02*
X1891Y3402D02*
X1917Y3428D01*
D02*
X1891Y3253D02*
X1891Y3402D01*
G54D13*
D02*
X738Y1878D02*
X616Y1877D01*
D02*
X616Y1877D02*
X391Y2104D01*
D02*
X391Y3104D02*
X241Y3203D01*
D02*
X241Y3203D02*
X241Y3249D01*
D02*
X391Y2104D02*
X391Y3104D01*
G54D34*
D02*
X2341Y1128D02*
X2341Y1107D01*
G54D36*
D02*
X3016Y753D02*
X3016Y903D01*
D02*
X3017Y653D02*
X3016Y753D01*
D02*
X2991Y628D02*
X3017Y653D01*
D02*
X2991Y626D02*
X2991Y628D01*
G36*
X2637Y2231D02*
X2696Y2231D01*
X2696Y2175D01*
X2637Y2175D01*
X2637Y2231D01*
G37*
D02*
G36*
X2637Y2311D02*
X2696Y2311D01*
X2696Y2256D01*
X2637Y2256D01*
X2637Y2311D01*
G37*
D02*
G04 End of Copper1*
M02*