; NON-PLATED HOLES START AT T1
; THROUGH (PLATED) HOLES START AT T100
M48
INCH
T1C0.118110
T100C0.040000
T101C0.070866
T102C0.015748
%
T1
X021579Y002257
X003390Y002257
X025371Y002264
X043560Y002264
T100
X022871Y013323
X031871Y012323
X026871Y012323
X028871Y012323
X032871Y012323
X013871Y012323
X024871Y012323
X023871Y013323
X016871Y012323
X014871Y013323
X014871Y012323
X017871Y012323
X029871Y013323
X023871Y012323
X026871Y013323
X021871Y013323
X020871Y012323
X018871Y013323
X025871Y012323
X017871Y013323
X016871Y013323
X021871Y012323
X027871Y012323
X019871Y012323
X030871Y012323
X028871Y013323
X025871Y013323
X013871Y013323
X029871Y012323
X015871Y012323
X024871Y013323
X022871Y012323
X018871Y012323
X020871Y013323
X032871Y013323
X027871Y013323
X030871Y013323
X015871Y013323
X019871Y013323
X031871Y013323
T101
X005043Y005131
X041907Y007303
X018272Y005131
X036946Y007303
X013311Y007297
X011658Y005131
X003390Y007297
X027025Y007303
X031985Y005138
X014965Y005131
X035292Y007303
X025371Y005138
X016618Y007297
X006697Y005131
X038600Y005138
X003390Y005131
X013311Y005131
X033639Y007303
X041907Y005138
X010004Y007297
X008350Y005131
X019925Y005131
X043560Y007303
X028678Y007303
X018272Y007297
X036946Y005138
X006697Y007297
X035292Y005138
X010004Y005131
X030332Y005138
X021579Y005131
X021579Y007297
X011658Y007297
X019925Y007297
X008350Y007297
X040253Y007303
X005043Y007297
X027025Y005138
X033639Y005138
X025371Y007303
X043560Y005138
X016618Y005131
X038600Y007303
X031985Y007303
X030332Y007303
X028678Y005138
X040253Y005138
X014965Y007297
T102
X018166Y015960
X037473Y013298
X045283Y016251
X044472Y011870
T00
M30
