G04 MADE WITH FRITZING*
G04 WWW.FRITZING.ORG*
G04 DOUBLE SIDED*
G04 HOLES PLATED*
G04 CONTOUR ON CENTER OF CONTOUR VECTOR*
%ASAXBY*%
%FSLAX23Y23*%
%MOIN*%
%OFA0B0*%
%SFA1.0B1.0*%
%ADD10C,0.039370*%
%ADD11C,0.114173*%
%ADD12C,0.074000*%
%ADD13R,0.000228X0.000228*%
%ADD14R,0.074000X0.074000*%
%ADD15C,0.024000*%
%ADD16C,0.048000*%
%ADD17C,0.016000*%
%ADD18C,0.032000*%
%ADD19C,0.012000*%
%LNCOPPER1*%
G90*
G70*
G54D10*
X4447Y1187D03*
G54D11*
X2158Y513D03*
X1993Y513D03*
X1827Y513D03*
X1662Y513D03*
X1497Y513D03*
X1331Y513D03*
X1166Y513D03*
X1000Y513D03*
X835Y513D03*
X670Y513D03*
X504Y513D03*
X339Y513D03*
X2158Y730D03*
X1993Y730D03*
X1827Y730D03*
X1662Y730D03*
X1497Y730D03*
X1331Y730D03*
X1166Y730D03*
X1000Y730D03*
X835Y730D03*
X670Y730D03*
X504Y730D03*
X339Y730D03*
X2158Y513D03*
X1993Y513D03*
X1827Y513D03*
X1662Y513D03*
X1497Y513D03*
X1331Y513D03*
X1166Y513D03*
X1000Y513D03*
X835Y513D03*
X670Y513D03*
X504Y513D03*
X339Y513D03*
X2158Y730D03*
X1993Y730D03*
X1827Y730D03*
X1662Y730D03*
X1497Y730D03*
X1331Y730D03*
X1166Y730D03*
X1000Y730D03*
X835Y730D03*
X670Y730D03*
X504Y730D03*
X339Y730D03*
X4356Y514D03*
X4191Y514D03*
X4025Y514D03*
X3860Y514D03*
X3695Y514D03*
X3529Y514D03*
X3364Y514D03*
X3199Y514D03*
X3033Y514D03*
X2868Y514D03*
X2703Y514D03*
X2537Y514D03*
X4356Y730D03*
X4191Y730D03*
X4025Y730D03*
X3860Y730D03*
X3695Y730D03*
X3529Y730D03*
X3364Y730D03*
X3199Y730D03*
X3033Y730D03*
X2868Y730D03*
X2703Y730D03*
X2537Y730D03*
X4356Y514D03*
X4191Y514D03*
X4025Y514D03*
X3860Y514D03*
X3695Y514D03*
X3529Y514D03*
X3364Y514D03*
X3199Y514D03*
X3033Y514D03*
X2868Y514D03*
X2703Y514D03*
X2537Y514D03*
X4356Y730D03*
X4191Y730D03*
X4025Y730D03*
X3860Y730D03*
X3695Y730D03*
X3529Y730D03*
X3364Y730D03*
X3199Y730D03*
X3033Y730D03*
X2868Y730D03*
X2703Y730D03*
X2537Y730D03*
G54D12*
X1387Y1332D03*
X1487Y1332D03*
X1587Y1332D03*
X1687Y1332D03*
X1787Y1332D03*
X1887Y1332D03*
X1987Y1332D03*
X2087Y1332D03*
X2187Y1332D03*
X2287Y1332D03*
X2387Y1332D03*
X2487Y1332D03*
X2587Y1332D03*
X2687Y1332D03*
X2787Y1332D03*
X2887Y1332D03*
X2987Y1332D03*
X3087Y1332D03*
X3187Y1332D03*
X3287Y1332D03*
X1387Y1232D03*
X1487Y1232D03*
X1587Y1232D03*
X1687Y1232D03*
X1787Y1232D03*
X1887Y1232D03*
X1987Y1232D03*
X2087Y1232D03*
X2187Y1232D03*
X2287Y1232D03*
X2387Y1232D03*
X2487Y1232D03*
X2587Y1232D03*
X2687Y1232D03*
X2787Y1232D03*
X2887Y1232D03*
X2987Y1232D03*
X3087Y1232D03*
X3187Y1232D03*
X3287Y1232D03*
G54D10*
X3747Y1330D03*
X1817Y1596D03*
X4528Y1625D03*
G54D13*
X2156Y513D03*
X342Y730D03*
X4355Y514D03*
X2540Y730D03*
G54D14*
X1387Y1232D03*
G54D15*
X3181Y773D02*
X2999Y1204D01*
D02*
X4450Y606D02*
X4447Y1168D01*
D02*
X4389Y546D02*
X4450Y606D01*
G54D16*
D02*
X339Y787D02*
X341Y1163D01*
D02*
X341Y1163D02*
X400Y1232D01*
D02*
X400Y1232D02*
X1345Y1232D01*
D02*
X568Y1143D02*
X1420Y1137D01*
D02*
X505Y787D02*
X509Y1074D01*
D02*
X1420Y1137D02*
X1483Y1163D01*
D02*
X1483Y1163D02*
X1485Y1190D01*
D02*
X509Y1074D02*
X568Y1143D01*
D02*
X726Y1054D02*
X1483Y1054D01*
D02*
X671Y787D02*
X676Y997D01*
D02*
X676Y997D02*
X726Y1054D01*
D02*
X1581Y1123D02*
X1585Y1190D01*
D02*
X1483Y1054D02*
X1581Y1123D01*
D02*
X893Y977D02*
X1670Y977D01*
D02*
X844Y928D02*
X893Y977D01*
D02*
X838Y787D02*
X844Y928D01*
D02*
X1670Y977D02*
X1788Y1104D01*
D02*
X1788Y1104D02*
X1788Y1190D01*
G54D17*
D02*
X1001Y849D02*
X1059Y898D01*
D02*
X1818Y1006D02*
X1897Y1085D01*
D02*
X1700Y898D02*
X1818Y1006D01*
D02*
X1059Y898D02*
X1700Y898D01*
D02*
X1897Y1085D02*
X1974Y1211D01*
D02*
X1001Y771D02*
X1001Y849D01*
D02*
X1168Y799D02*
X1218Y828D01*
D02*
X1758Y828D02*
X1995Y1065D01*
D02*
X1218Y828D02*
X1758Y828D01*
D02*
X1167Y771D02*
X1168Y799D01*
D02*
X1996Y1065D02*
X2075Y1210D01*
G54D16*
D02*
X339Y560D02*
X339Y683D01*
D02*
X504Y560D02*
X504Y683D01*
D02*
X670Y560D02*
X670Y683D01*
D02*
X835Y560D02*
X835Y683D01*
G54D15*
D02*
X1956Y867D02*
X2063Y985D01*
D02*
X1859Y764D02*
X1956Y867D01*
D02*
X2063Y985D02*
X2173Y1205D01*
D02*
X2085Y859D02*
X2272Y1205D01*
D02*
X2020Y768D02*
X2085Y859D01*
D02*
X1827Y560D02*
X1827Y683D01*
D02*
X1993Y560D02*
X1993Y683D01*
D02*
X2581Y1061D02*
X2586Y1201D01*
D02*
X2687Y774D02*
X2581Y1061D01*
D02*
X2483Y1046D02*
X2486Y1201D01*
D02*
X2529Y776D02*
X2483Y1046D01*
G54D18*
D02*
X2260Y1617D02*
X2183Y1577D01*
D02*
X4329Y1556D02*
X4247Y1615D01*
D02*
X2183Y1577D02*
X2187Y1369D01*
D02*
X4247Y1615D02*
X2260Y1617D01*
D02*
X4354Y782D02*
X4329Y1556D01*
D02*
X4116Y1563D02*
X2340Y1568D01*
D02*
X4179Y1498D02*
X4116Y1563D01*
D02*
X2340Y1568D02*
X2281Y1538D01*
D02*
X4190Y782D02*
X4179Y1498D01*
D02*
X2281Y1538D02*
X2286Y1369D01*
D02*
X3953Y1517D02*
X2428Y1517D01*
D02*
X4013Y1419D02*
X3953Y1517D01*
D02*
X2428Y1517D02*
X2379Y1468D01*
D02*
X2379Y1468D02*
X2385Y1369D01*
D02*
X4024Y782D02*
X4013Y1419D01*
D02*
X2526Y1468D02*
X2487Y1419D01*
D02*
X2487Y1419D02*
X2487Y1369D01*
D02*
X3796Y1468D02*
X2526Y1468D01*
D02*
X3903Y1396D02*
X3796Y1468D01*
D02*
X3909Y852D02*
X3903Y1396D01*
D02*
X3880Y779D02*
X3909Y852D01*
G54D15*
D02*
X3728Y1330D02*
X3318Y1332D01*
D02*
X3240Y1424D02*
X3203Y1359D01*
D02*
X3748Y1418D02*
X3240Y1424D01*
D02*
X3801Y1374D02*
X3748Y1418D01*
D02*
X3807Y839D02*
X3801Y1374D01*
D02*
X3728Y763D02*
X3807Y839D01*
G54D16*
D02*
X195Y1297D02*
X283Y1413D01*
D02*
X283Y1413D02*
X1620Y1409D01*
D02*
X1620Y1409D02*
X1659Y1364D01*
D02*
X188Y400D02*
X195Y1297D01*
D02*
X294Y332D02*
X188Y400D01*
D02*
X1037Y332D02*
X294Y332D01*
D02*
X1132Y466D02*
X1037Y332D01*
D02*
X222Y1474D02*
X1027Y1474D01*
D02*
X119Y1356D02*
X222Y1474D01*
D02*
X116Y209D02*
X119Y1356D01*
D02*
X1174Y257D02*
X961Y100D01*
D02*
X219Y106D02*
X116Y209D01*
D02*
X961Y100D02*
X219Y106D01*
D02*
X1027Y1474D02*
X1664Y1474D01*
D02*
X1664Y1474D02*
X1760Y1364D01*
D02*
X1301Y464D02*
X1174Y257D01*
G54D18*
D02*
X1883Y1536D02*
X1886Y1369D01*
D02*
X1835Y1580D02*
X1883Y1536D01*
G54D15*
D02*
X3742Y883D02*
X3742Y1158D01*
D02*
X3742Y1158D02*
X3683Y1232D01*
D02*
X3683Y1232D02*
X3318Y1232D01*
D02*
X3567Y758D02*
X3742Y883D01*
G54D19*
D02*
X3659Y1055D02*
X3618Y1114D01*
D02*
X3662Y936D02*
X3659Y1055D01*
D02*
X3618Y1114D02*
X3228Y1108D01*
D02*
X3228Y1108D02*
X3195Y1208D01*
D02*
X3398Y754D02*
X3662Y936D01*
G54D15*
D02*
X3334Y357D02*
X4573Y360D01*
D02*
X4573Y360D02*
X4623Y434D01*
D02*
X4614Y1557D02*
X4543Y1613D01*
D02*
X4623Y434D02*
X4614Y1557D01*
D02*
X3229Y479D02*
X3334Y357D01*
G04 End of Copper1*
M02*