G04 MADE WITH FRITZING*
G04 WWW.FRITZING.ORG*
G04 DOUBLE SIDED*
G04 HOLES PLATED*
G04 CONTOUR ON CENTER OF CONTOUR VECTOR*
%ASAXBY*%
%FSLAX23Y23*%
%MOIN*%
%OFA0B0*%
%SFA1.0B1.0*%
%ADD10C,0.039370*%
%ADD11C,0.114173*%
%ADD12C,0.074000*%
%ADD13R,0.074000X0.074000*%
%ADD14C,0.016000*%
%ADD15C,0.048000*%
%ADD16C,0.024000*%
%ADD17C,0.032000*%
%LNCOPPER0*%
G90*
G70*
G54D10*
X4447Y1187D03*
G54D11*
X2158Y513D03*
X1993Y513D03*
X1827Y513D03*
X1662Y513D03*
X1497Y513D03*
X1331Y513D03*
X1166Y513D03*
X1000Y513D03*
X835Y513D03*
X670Y513D03*
X504Y513D03*
X339Y513D03*
X2158Y730D03*
X1993Y730D03*
X1827Y730D03*
X1662Y730D03*
X1497Y730D03*
X1331Y730D03*
X1166Y730D03*
X1000Y730D03*
X835Y730D03*
X670Y730D03*
X504Y730D03*
X339Y730D03*
X4356Y514D03*
X4191Y514D03*
X4025Y514D03*
X3860Y514D03*
X3695Y514D03*
X3529Y514D03*
X3364Y514D03*
X3199Y514D03*
X3033Y514D03*
X2868Y514D03*
X2703Y514D03*
X2537Y514D03*
X4356Y730D03*
X4191Y730D03*
X4025Y730D03*
X3860Y730D03*
X3695Y730D03*
X3529Y730D03*
X3364Y730D03*
X3199Y730D03*
X3033Y730D03*
X2868Y730D03*
X2703Y730D03*
X2537Y730D03*
G54D12*
X1387Y1332D03*
X1487Y1332D03*
X1587Y1332D03*
X1687Y1332D03*
X1787Y1332D03*
X1887Y1332D03*
X1987Y1332D03*
X2087Y1332D03*
X2187Y1332D03*
X2287Y1332D03*
X2387Y1332D03*
X2487Y1332D03*
X2587Y1332D03*
X2687Y1332D03*
X2787Y1332D03*
X2887Y1332D03*
X2987Y1332D03*
X3087Y1332D03*
X3187Y1332D03*
X3287Y1332D03*
X1387Y1232D03*
X1487Y1232D03*
X1587Y1232D03*
X1687Y1232D03*
X1787Y1232D03*
X1887Y1232D03*
X1987Y1232D03*
X2087Y1232D03*
X2187Y1232D03*
X2287Y1232D03*
X2387Y1232D03*
X2487Y1232D03*
X2587Y1232D03*
X2687Y1232D03*
X2787Y1232D03*
X2887Y1232D03*
X2987Y1232D03*
X3087Y1232D03*
X3187Y1232D03*
X3287Y1232D03*
G54D10*
X3747Y1330D03*
X1817Y1596D03*
X4528Y1625D03*
G54D13*
X1387Y1232D03*
G54D14*
X4390Y624D02*
X4451Y681D01*
D02*
X4451Y957D02*
X4373Y1061D01*
D02*
X4106Y621D02*
X4390Y624D01*
D02*
X4451Y681D02*
X4451Y957D01*
D02*
X4373Y1061D02*
X3165Y1061D01*
D02*
X3165Y1061D02*
X3098Y1209D01*
D02*
X4050Y547D02*
X4106Y621D01*
G54D15*
D02*
X2289Y864D02*
X2277Y618D01*
D02*
X2277Y618D02*
X2201Y551D01*
D02*
X2551Y1040D02*
X2289Y864D01*
D02*
X2663Y1198D02*
X2551Y1040D01*
D02*
X2600Y987D02*
X2762Y1199D01*
D02*
X2360Y827D02*
X2600Y987D01*
D02*
X2351Y572D02*
X2360Y827D01*
D02*
X2482Y531D02*
X2351Y572D01*
D02*
X2683Y932D02*
X2863Y1197D01*
D02*
X2425Y769D02*
X2683Y932D01*
D02*
X2425Y631D02*
X2425Y769D01*
D02*
X2634Y618D02*
X2425Y631D01*
D02*
X2671Y562D02*
X2634Y618D01*
G54D16*
D02*
X4432Y1199D02*
X4260Y1330D01*
D02*
X2177Y772D02*
X2374Y1204D01*
G54D14*
D02*
X1148Y1409D02*
X1189Y1450D01*
D02*
X1986Y1409D02*
X1987Y1358D01*
D02*
X1149Y1016D02*
X1148Y1409D01*
D02*
X1936Y1450D02*
X1986Y1409D01*
D02*
X1189Y1450D02*
X1936Y1450D01*
D02*
X1465Y756D02*
X1149Y1016D01*
D02*
X1070Y1439D02*
X1129Y1518D01*
D02*
X2085Y1450D02*
X2087Y1358D01*
D02*
X1070Y937D02*
X1070Y1439D01*
D02*
X1996Y1518D02*
X2085Y1450D01*
D02*
X1129Y1518D02*
X1996Y1518D01*
D02*
X1299Y755D02*
X1070Y937D01*
G54D16*
D02*
X4260Y1330D02*
X3766Y1330D01*
D02*
X1541Y1400D02*
X1570Y1358D01*
D02*
X1625Y758D02*
X1256Y1045D01*
D02*
X1247Y1330D02*
X1296Y1400D01*
D02*
X1296Y1400D02*
X1541Y1400D01*
D02*
X1256Y1045D02*
X1247Y1330D01*
G54D15*
D02*
X133Y397D02*
X57Y464D01*
D02*
X57Y464D02*
X57Y1433D01*
D02*
X57Y1433D02*
X193Y1593D01*
D02*
X969Y465D02*
X921Y390D01*
D02*
X921Y390D02*
X133Y397D01*
G54D17*
D02*
X193Y1593D02*
X1030Y1596D01*
D02*
X1030Y1596D02*
X1792Y1596D01*
G54D14*
D02*
X2740Y1563D02*
X2684Y1504D01*
D02*
X4620Y1566D02*
X2740Y1563D01*
D02*
X4688Y153D02*
X4688Y1489D01*
D02*
X2796Y136D02*
X2897Y71D01*
D02*
X2782Y608D02*
X2796Y136D01*
D02*
X2897Y71D02*
X4644Y71D01*
D02*
X4644Y71D02*
X4688Y153D01*
D02*
X4688Y1489D02*
X4620Y1566D01*
D02*
X2684Y1504D02*
X2687Y1358D01*
D02*
X2844Y697D02*
X2782Y608D01*
D02*
X4593Y1528D02*
X2826Y1528D01*
D02*
X2826Y1528D02*
X2779Y1483D01*
D02*
X2779Y1483D02*
X2786Y1358D01*
D02*
X4602Y109D02*
X4644Y180D01*
D02*
X2882Y138D02*
X2926Y109D01*
D02*
X4644Y180D02*
X4644Y1463D01*
D02*
X2926Y109D02*
X4602Y109D01*
D02*
X4644Y1463D02*
X4593Y1528D01*
D02*
X2869Y473D02*
X2882Y138D01*
D02*
X3047Y1463D02*
X2986Y1415D01*
D02*
X4514Y361D02*
X4568Y440D01*
D02*
X4514Y1459D02*
X3047Y1463D01*
D02*
X4568Y440D02*
X4564Y1365D01*
D02*
X3141Y351D02*
X4514Y361D01*
D02*
X4564Y1365D02*
X4514Y1459D01*
D02*
X2986Y1415D02*
X2987Y1358D01*
D02*
X3056Y480D02*
X3141Y351D01*
D02*
X2959Y375D02*
X3043Y307D01*
D02*
X3043Y307D02*
X4555Y311D01*
D02*
X2944Y617D02*
X2959Y375D01*
D02*
X4555Y311D02*
X4599Y404D01*
D02*
X4599Y404D02*
X4599Y1418D01*
D02*
X4599Y1418D02*
X4555Y1489D01*
D02*
X4555Y1489D02*
X2929Y1492D01*
D02*
X2929Y1492D02*
X2885Y1448D01*
D02*
X2885Y1448D02*
X2887Y1358D01*
D02*
X3008Y698D02*
X2944Y617D01*
G54D15*
D02*
X4292Y416D02*
X4469Y416D01*
D02*
X4469Y416D02*
X4511Y470D01*
D02*
X4200Y449D02*
X4292Y416D01*
D02*
X4511Y470D02*
X4505Y1306D01*
D02*
X4199Y457D02*
X4200Y449D01*
D02*
X4505Y1306D02*
X4451Y1409D01*
D02*
X4451Y1409D02*
X3121Y1409D01*
D02*
X3121Y1409D02*
X3104Y1371D01*
G54D16*
D02*
X4509Y1625D02*
X2631Y1625D01*
D02*
X2631Y1625D02*
X2575Y1566D01*
D02*
X2575Y1566D02*
X2586Y1363D01*
G04 End of Copper0*
M02*